<svg width="250" height="75" viewBox="0 0 250 75" fill="none" xmlns="http://www.w3.org/2000/svg">
<rect width="250" height="74.5644" rx="37.2822" fill="white"/>
<path d="M72.7406 37.3331C72.7406 32.8686 76.4633 30.6935 76.5797 30.5791C74.4856 27.4882 71.2282 27.1448 70.0648 27.1448C67.2728 26.9159 64.597 28.7475 63.201 28.7475C61.8049 28.7475 59.5946 27.1448 57.2678 27.1448C54.2431 27.1448 51.451 28.8619 49.9386 31.6093C46.7975 36.9897 49.1243 44.8884 52.149 49.353C53.6614 51.528 55.4064 53.932 57.7332 53.8175C60.0599 53.703 60.8743 52.4438 63.6663 52.4438C66.3421 52.4438 67.1564 53.8175 69.5995 53.8175C72.0425 53.8175 73.5549 51.6425 75.0673 49.4674C76.8123 47.0635 77.5104 44.545 77.5104 44.4305C77.5104 44.4305 72.7406 42.5989 72.7406 37.3331Z" fill="#5BC1CF"/>
<path d="M68.2026 24.1679C69.4823 22.6797 70.2967 20.6191 70.064 18.5586C68.319 18.6731 66.1086 19.8178 64.8289 21.1915C63.6655 22.4508 62.7349 24.6258 62.9675 26.5719C64.9452 26.8008 66.9229 25.6561 68.2026 24.1679Z" fill="#5BC1CF"/>
<path d="M105.781 53.4742H102.64L100.778 48.0939H94.7288L93.1001 53.4742H89.959L96.0085 35.1582H99.7312L105.781 53.4742ZM100.313 45.8044L98.6842 40.9964C98.5679 40.5385 98.2189 39.3938 97.7535 37.5622C97.5208 38.3635 97.2882 39.5083 96.8228 40.9964L95.3105 45.8044H100.313Z" fill="#5BC1CF"/>
<path d="M121.136 46.7201C121.136 49.0096 120.554 50.7267 119.275 52.1004C118.111 53.2452 116.832 53.8175 115.203 53.8175C113.458 53.8175 112.178 53.2452 111.364 51.9859V58.9689H108.339V44.545C108.339 43.1713 108.339 41.6832 108.223 40.195H110.898L111.015 42.2555C112.062 40.6529 113.574 39.8516 115.552 39.8516C117.181 39.8516 118.46 40.4239 119.507 41.6832C120.671 43.0569 121.136 44.6595 121.136 46.7201ZM118.111 46.8346C118.111 45.5753 117.762 44.4306 117.181 43.6292C116.483 42.7134 115.668 42.37 114.621 42.37C113.923 42.37 113.225 42.599 112.643 43.0569C112.062 43.5148 111.596 44.2016 111.48 45.0029C111.364 45.3464 111.364 45.6898 111.364 45.9188V48.0938C111.364 49.0096 111.713 49.9254 112.294 50.4978C112.876 51.1846 113.69 51.528 114.621 51.528C115.785 51.528 116.599 51.0701 117.297 50.2688C117.879 49.353 118.111 48.2083 118.111 46.8346Z" fill="#5BC1CF"/>
<path d="M136.722 46.7201C136.722 49.0096 136.14 50.7267 134.861 52.1004C133.697 53.2452 132.418 53.8175 130.789 53.8175C129.044 53.8175 127.764 53.2452 126.95 51.9859V58.9689H123.925V44.545C123.925 43.1713 123.925 41.6832 123.809 40.195H126.368L126.484 42.2555C127.531 40.6529 129.044 39.8516 131.022 39.8516C132.65 39.8516 133.93 40.4239 134.977 41.6832C136.14 43.0569 136.722 44.6595 136.722 46.7201ZM133.581 46.8346C133.581 45.5753 133.232 44.4306 132.65 43.6292C131.952 42.7134 131.138 42.37 130.091 42.37C129.393 42.37 128.695 42.599 128.113 43.0569C127.531 43.5148 127.066 44.2016 126.95 45.0029C126.833 45.3464 126.833 45.6898 126.833 45.9188V48.0938C126.833 49.0096 127.182 49.9254 127.764 50.4978C128.346 51.1846 129.16 51.528 130.091 51.528C131.254 51.528 132.069 51.0701 132.767 50.2688C133.348 49.353 133.581 48.2083 133.581 46.8346Z" fill="#5BC1CF"/>
<path d="M153.94 48.3225C153.94 49.9252 153.359 51.1844 152.312 52.1002C151.148 53.1305 149.403 53.7028 147.193 53.7028C145.215 53.7028 143.586 53.3594 142.307 52.5581L143.005 50.1541C144.284 50.9554 145.797 51.2989 147.309 51.2989C148.472 51.2989 149.287 51.0699 149.985 50.4975C150.567 50.0396 150.916 49.3528 150.916 48.437C150.916 47.6357 150.683 47.0633 150.101 46.6054C149.636 46.1475 148.705 45.5751 147.542 45.2317C144.284 44.0869 142.656 42.2553 142.656 39.9658C142.656 38.4777 143.237 37.2184 144.401 36.3026C145.564 35.3868 147.076 34.8145 148.938 34.8145C150.683 34.8145 152.079 35.1579 153.126 35.7303L152.428 38.1342C151.381 37.5619 150.218 37.3329 148.821 37.3329C147.774 37.3329 146.96 37.5619 146.378 38.1342C145.913 38.5921 145.68 39.1645 145.68 39.8514C145.68 40.5382 145.913 41.2251 146.495 41.683C146.96 42.1409 147.891 42.5988 149.17 43.0567C150.799 43.7435 151.963 44.4304 152.661 45.3462C153.591 46.033 153.94 47.0633 153.94 48.3225Z" fill="#5BC1CF"/>
<path d="M163.83 42.4848H160.573V48.8954C160.573 50.498 161.154 51.2994 162.318 51.2994C162.9 51.2994 163.249 51.2994 163.598 51.1849L163.714 53.4744C163.132 53.7033 162.318 53.8178 161.387 53.8178C160.224 53.8178 159.293 53.4744 158.595 52.7875C157.897 52.1007 157.548 50.8415 157.548 49.2388V42.5993H155.57V40.4243H157.548V38.0203L160.456 37.1045V40.4243H163.714V42.4848H163.83Z" fill="#5BC1CF"/>
<path d="M178.72 46.7198C178.72 48.7804 178.139 50.383 176.975 51.7567C175.695 53.1304 174.067 53.8173 172.089 53.8173C170.111 53.8173 168.599 53.1304 167.319 51.8712C166.156 50.612 165.574 49.0093 165.574 46.9488C165.574 44.8882 166.156 43.1711 167.436 41.9119C168.599 40.6527 170.228 39.9658 172.322 39.9658C174.299 39.9658 175.928 40.6527 177.092 41.9119C178.139 43.1711 178.72 44.7738 178.72 46.7198ZM175.695 46.8343C175.695 45.5751 175.463 44.5448 174.881 43.7435C174.299 42.7132 173.369 42.1408 172.205 42.1408C171.042 42.1408 170.111 42.7132 169.413 43.7435C168.832 44.6593 168.599 45.6896 168.599 46.9488C168.599 48.208 168.832 49.2383 169.413 50.0396C170.111 51.0699 170.926 51.6422 172.089 51.6422C173.252 51.6422 174.183 51.0699 174.765 50.0396C175.346 49.1238 175.695 48.0935 175.695 46.8343Z" fill="#5BC1CF"/>
<path d="M188.492 42.8285C188.143 42.8285 187.911 42.714 187.562 42.714C186.514 42.714 185.7 43.0574 185.118 43.8587C184.653 44.5456 184.42 45.4614 184.42 46.4917V53.4747H181.396V44.4311C181.396 42.9429 181.396 41.5692 181.279 40.31H183.839L183.955 42.8285H184.071C184.42 41.9127 184.886 41.2258 185.584 40.7679C186.282 40.31 186.98 40.0811 187.794 40.0811C188.027 40.0811 188.376 40.0811 188.492 40.0811V42.8285Z" fill="#5BC1CF"/>
<path d="M201.871 46.2619C201.871 46.8343 201.871 47.1777 201.755 47.6356H192.797C192.797 48.8949 193.262 49.9251 194.077 50.612C194.775 51.1843 195.822 51.5278 196.985 51.5278C198.265 51.5278 199.545 51.2988 200.592 50.9554L201.057 53.0159C199.777 53.5883 198.265 53.8173 196.52 53.8173C194.426 53.8173 192.797 53.2449 191.634 51.9857C190.47 50.7264 189.889 49.1238 189.889 47.1777C189.889 45.2317 190.47 43.5145 191.517 42.1408C192.681 40.7671 194.193 39.9658 196.171 39.9658C198.149 39.9658 199.545 40.6527 200.592 42.1408C201.406 43.1711 201.871 44.5448 201.871 46.2619ZM198.963 45.4606C198.963 44.5448 198.73 43.858 198.381 43.1711C197.916 42.3698 197.102 41.9119 196.055 41.9119C195.124 41.9119 194.309 42.2553 193.728 43.0566C193.262 43.7435 192.913 44.4303 192.797 45.3461H198.963V45.4606Z" fill="#5BC1CF"/>
<path d="M99.263 23.8249C99.263 25.4275 98.7977 26.6867 97.7507 27.488C96.82 28.2894 95.5403 28.6328 93.7952 28.6328C92.9809 28.6328 92.2829 28.6328 91.7012 28.5183V19.5893C92.5155 19.4748 93.3299 19.3604 94.2606 19.3604C95.8893 19.3604 97.0526 19.7038 97.867 20.3906C98.7977 21.1919 99.263 22.3367 99.263 23.8249ZM97.7507 23.8249C97.7507 22.7946 97.518 21.9933 96.9363 21.4209C96.3546 20.8485 95.5403 20.6196 94.4932 20.6196C94.0279 20.6196 93.6789 20.6196 93.3299 20.734V27.488C93.5626 27.488 93.7952 27.488 94.3769 27.488C95.5403 27.488 96.3546 27.1446 96.9363 26.5723C97.4017 25.8854 97.7507 24.9696 97.7507 23.8249Z" fill="#5BC1CF"/>
<path d="M107.522 25.1994C107.522 26.2297 107.289 27.031 106.707 27.7178C106.126 28.4047 105.311 28.7481 104.264 28.7481C103.333 28.7481 102.519 28.4047 101.937 27.8323C101.356 27.1455 101.123 26.3441 101.123 25.4284C101.123 24.3981 101.472 23.5968 102.054 22.9099C102.635 22.2231 103.45 21.9941 104.497 21.9941C105.427 21.9941 106.242 22.3376 106.824 22.9099C107.173 23.4823 107.522 24.2836 107.522 25.1994ZM106.009 25.3139C106.009 24.7415 105.893 24.1691 105.66 23.8257C105.311 23.2534 104.962 23.0244 104.38 23.0244C103.799 23.0244 103.333 23.2534 102.984 23.8257C102.752 24.2836 102.635 24.7415 102.635 25.4284C102.635 26.0007 102.752 26.5731 102.984 26.9165C103.333 27.4889 103.799 27.7178 104.264 27.7178C104.846 27.7178 105.311 27.4889 105.544 26.9165C105.893 26.3441 106.009 25.8863 106.009 25.3139Z" fill="#5BC1CF"/>
<path d="M118.578 21.9941L116.484 28.5192H115.088L114.273 25.6573C114.041 24.9705 113.924 24.2836 113.692 23.5968C113.575 24.2836 113.343 24.9705 113.226 25.6573L112.296 28.5192H110.9L108.922 21.9941H110.434L111.249 25.085C111.481 25.7718 111.598 26.4587 111.714 27.1455C111.83 26.5731 111.947 25.8863 112.296 25.085L113.226 21.9941H114.39L115.32 25.085C115.553 25.7718 115.669 26.5731 115.902 27.26C115.902 26.5731 116.135 25.7718 116.251 25.085L117.065 21.9941H118.578Z" fill="#5BC1CF"/>
<path d="M126.139 28.5185H124.627V24.7408C124.627 23.596 124.161 23.0237 123.347 23.0237C122.882 23.0237 122.533 23.1381 122.3 23.4816C122.067 23.825 121.835 24.1684 121.835 24.6263V28.5185H120.322V23.825C120.322 23.2526 120.322 22.6802 120.322 21.9934H121.602L121.718 23.0237C121.835 22.6802 122.184 22.4513 122.533 22.2223C122.882 21.9934 123.347 21.8789 123.812 21.8789C124.394 21.8789 124.976 22.1079 125.325 22.4513C125.79 22.9092 126.139 23.596 126.139 24.6263V28.5185Z" fill="#5BC1CF"/>
<path d="M130.208 28.518H128.695V19.0166H130.208V28.518Z" fill="#5BC1CF"/>
<path d="M138.82 25.1994C138.82 26.2297 138.588 27.031 138.006 27.7178C137.424 28.4047 136.61 28.7481 135.563 28.7481C134.632 28.7481 133.818 28.4047 133.236 27.8323C132.655 27.1455 132.422 26.3441 132.422 25.4284C132.422 24.3981 132.771 23.5968 133.353 22.9099C133.934 22.2231 134.749 21.9941 135.796 21.9941C136.726 21.9941 137.541 22.3376 138.122 22.9099C138.588 23.4823 138.82 24.2836 138.82 25.1994ZM137.308 25.3139C137.308 24.7415 137.192 24.1691 136.959 23.8257C136.61 23.2534 136.261 23.0244 135.679 23.0244C135.098 23.0244 134.632 23.2534 134.283 23.8257C134.051 24.2836 133.934 24.7415 133.934 25.4284C133.934 26.0007 134.051 26.5731 134.283 26.9165C134.632 27.4889 135.098 27.7178 135.563 27.7178C136.145 27.7178 136.61 27.4889 136.843 26.9165C137.192 26.3441 137.308 25.8863 137.308 25.3139Z" fill="#5BC1CF"/>
<path d="M146.032 28.5184H144.753L144.52 27.7171C144.055 28.2895 143.473 28.6329 142.542 28.6329C141.96 28.6329 141.379 28.404 141.03 28.0605C140.681 27.7171 140.564 27.2592 140.564 26.6868C140.564 25.8855 140.913 25.3131 141.611 24.8552C142.193 24.5118 143.24 24.2829 144.404 24.2829V24.1684C144.404 23.3671 143.938 22.9092 143.008 22.9092C142.31 22.9092 141.728 23.0237 141.262 23.3671L140.913 22.4513C141.495 22.1079 142.31 21.8789 143.24 21.8789C144.985 21.8789 145.8 22.7947 145.8 24.6263V27.0303C145.916 27.6026 145.916 28.175 146.032 28.5184ZM144.404 26.2289V25.3131C142.775 25.3131 141.96 25.771 141.96 26.5724C141.96 26.9158 142.077 27.1447 142.193 27.3737C142.426 27.4882 142.659 27.6026 142.891 27.6026C143.24 27.6026 143.473 27.4882 143.822 27.2592C144.055 27.0303 144.287 26.8013 144.287 26.4579C144.404 26.4579 144.404 26.3434 144.404 26.2289Z" fill="#5BC1CF"/>
<path d="M154.292 28.518H153.012L152.896 27.4877C152.431 28.289 151.733 28.6325 150.802 28.6325C149.988 28.6325 149.289 28.289 148.824 27.7167C148.242 27.1443 148.01 26.343 148.01 25.3127C148.01 24.2824 148.242 23.3666 148.824 22.7943C149.406 22.2219 150.104 21.8785 150.918 21.8785C151.849 21.8785 152.431 22.2219 152.78 22.7943V19.0166H154.292V26.8009C154.292 27.3732 154.292 27.9456 154.292 28.518ZM152.78 25.7706V24.7403C152.78 24.5114 152.78 24.3969 152.78 24.2824C152.663 23.939 152.547 23.5956 152.198 23.3666C151.965 23.1377 151.616 23.0232 151.267 23.0232C150.686 23.0232 150.337 23.2522 149.988 23.7101C149.639 24.168 149.522 24.7403 149.522 25.3127C149.522 25.9995 149.639 26.4574 149.988 26.9153C150.337 27.3732 150.686 27.6022 151.267 27.6022C151.733 27.6022 152.082 27.3732 152.431 27.0298C152.663 26.6864 152.78 26.2285 152.78 25.7706Z" fill="#5BC1CF"/>
<path d="M166.856 25.1994C166.856 26.2297 166.623 27.031 166.041 27.7178C165.459 28.4047 164.645 28.7481 163.598 28.7481C162.667 28.7481 161.853 28.4047 161.271 27.8323C160.69 27.1455 160.457 26.3441 160.457 25.4284C160.457 24.3981 160.806 23.5968 161.388 22.9099C161.969 22.2231 162.784 21.9941 163.831 21.9941C164.761 21.9941 165.576 22.3376 166.158 22.9099C166.623 23.4823 166.856 24.2836 166.856 25.1994ZM165.343 25.3139C165.343 24.7415 165.227 24.1691 164.994 23.8257C164.645 23.2534 164.296 23.0244 163.714 23.0244C163.133 23.0244 162.667 23.2534 162.318 23.8257C162.086 24.2836 161.969 24.7415 161.969 25.4284C161.969 26.0007 162.086 26.5731 162.318 26.9165C162.667 27.4889 163.133 27.7178 163.598 27.7178C164.18 27.7178 164.645 27.4889 164.878 26.9165C165.227 26.3441 165.343 25.8863 165.343 25.3139Z" fill="#5BC1CF"/>
<path d="M174.766 28.5185H173.254V24.7408C173.254 23.596 172.788 23.0237 171.974 23.0237C171.509 23.0237 171.16 23.1381 170.927 23.4816C170.694 23.825 170.462 24.1684 170.462 24.6263V28.5185H168.949V23.825C168.949 23.2526 168.949 22.6802 168.949 21.9934H170.229L170.345 23.0237C170.462 22.6802 170.811 22.4513 171.16 22.2223C171.509 21.9934 171.974 21.8789 172.439 21.8789C173.021 21.8789 173.603 22.1079 173.952 22.4513C174.417 22.9092 174.766 23.596 174.766 24.6263V28.5185Z" fill="#5BC1CF"/>
<path d="M184.654 23.139H183.025V26.3443C183.025 27.1456 183.258 27.6035 183.839 27.6035C184.072 27.6035 184.305 27.6035 184.537 27.489V28.6337C184.305 28.7482 183.839 28.7482 183.374 28.7482C182.792 28.7482 182.327 28.5193 181.978 28.1758C181.629 27.8324 181.513 27.26 181.513 26.4587V23.139H180.582V21.9942H181.513V20.8495L182.909 20.3916V21.9942H184.537V23.139H184.654Z" fill="#5BC1CF"/>
<path d="M192.452 28.518H190.939V24.8548C190.939 23.7101 190.474 23.1377 189.66 23.1377C188.961 23.1377 188.496 23.4811 188.263 24.168C188.263 24.2824 188.147 24.5114 188.147 24.7403V28.6325H186.635V19.0166H188.147V22.9087C188.612 22.2219 189.311 21.8785 190.125 21.8785C190.707 21.8785 191.288 22.1074 191.637 22.4508C192.103 22.9087 192.335 23.7101 192.335 24.6259V28.518H192.452Z" fill="#5BC1CF"/>
<path d="M200.477 24.9705C200.477 25.1994 200.477 25.4284 200.477 25.6573H196.056C196.056 26.3441 196.289 26.802 196.638 27.1455C196.987 27.4889 197.452 27.6034 198.034 27.6034C198.732 27.6034 199.314 27.4889 199.779 27.2599L200.012 28.2902C199.43 28.5192 198.616 28.7481 197.801 28.7481C196.754 28.7481 195.94 28.4047 195.358 27.8323C194.777 27.2599 194.428 26.4586 194.428 25.4284C194.428 24.3981 194.66 23.5968 195.242 23.0244C195.824 22.3376 196.638 21.9941 197.569 21.9941C198.5 21.9941 199.198 22.3376 199.779 23.0244C200.361 23.4823 200.477 24.1691 200.477 24.9705ZM199.081 24.627C199.081 24.1691 198.965 23.8257 198.849 23.4823C198.616 23.0244 198.151 22.9099 197.685 22.9099C197.22 22.9099 196.871 23.1389 196.522 23.4823C196.289 23.8257 196.173 24.1691 196.056 24.627H199.081Z" fill="#5BC1CF"/>
</svg>
