<svg width="145" height="47" viewBox="0 0 145 47" fill="none" xmlns="http://www.w3.org/2000/svg">
<rect width="144.065" height="47" rx="23.5" fill="url(#paint0_linear)"/>
<path d="M36.1036 23.5321C36.1036 20.718 38.4502 19.347 38.5235 19.2748C37.2036 17.3266 35.1504 17.1101 34.4171 17.1101C32.6571 16.9658 30.9705 18.1203 30.0906 18.1203C29.2106 18.1203 27.8174 17.1101 26.3508 17.1101C24.4442 17.1101 22.6843 18.1925 21.731 19.9243C19.751 23.3156 21.2177 28.2944 23.1242 31.1085C24.0775 32.4795 25.1775 33.9948 26.6441 33.9227C28.1107 33.8505 28.624 33.0568 30.3839 33.0568C32.0705 33.0568 32.5838 33.9227 34.1237 33.9227C35.6637 33.9227 36.617 32.5517 37.5702 31.1807C38.6702 29.6654 39.1102 28.078 39.1102 28.0058C39.1102 28.0058 36.1036 26.8513 36.1036 23.5321Z" fill="white"/>
<path d="M33.2437 15.2339C34.0503 14.2959 34.5636 12.9971 34.417 11.6982C33.317 11.7704 31.9238 12.492 31.1172 13.3578C30.3839 14.1516 29.7972 15.5226 29.9439 16.7492C31.1905 16.8935 32.4371 16.172 33.2437 15.2339Z" fill="white"/>
<path d="M56.9293 33.7062H54.9494L53.7761 30.3149H49.9629L48.9363 33.7062H46.9564L50.7696 22.1611H53.1161L56.9293 33.7062ZM53.4828 28.8717L52.4562 25.8411C52.3828 25.5525 52.1628 24.8309 51.8695 23.6764C51.7229 24.1815 51.5762 24.9031 51.2829 25.8411L50.3296 28.8717H53.4828Z" fill="white"/>
<path d="M66.609 29.449C66.609 30.8922 66.2423 31.9745 65.4357 32.8404C64.7024 33.562 63.8958 33.9228 62.8692 33.9228C61.7692 33.9228 60.9626 33.562 60.4493 32.7683V37.1698H58.5427V28.0781C58.5427 27.2122 58.5427 26.2741 58.4694 25.3361H60.1559L60.2293 26.6349C60.8892 25.6247 61.8425 25.1196 63.0891 25.1196C64.1158 25.1196 64.9224 25.4804 65.5824 26.2741C66.3157 27.14 66.609 28.1502 66.609 29.449ZM64.7024 29.5212C64.7024 28.7275 64.4824 28.0059 64.1158 27.5008C63.6758 26.9236 63.1625 26.7071 62.5025 26.7071C62.0625 26.7071 61.6225 26.8514 61.2559 27.14C60.8892 27.4286 60.5959 27.8616 60.5226 28.3667C60.4493 28.5832 60.4493 28.7996 60.4493 28.9439V30.3149C60.4493 30.8922 60.6693 31.4694 61.0359 31.8302C61.4026 32.2632 61.9159 32.4796 62.5025 32.4796C63.2358 32.4796 63.7491 32.191 64.1891 31.6859C64.5557 31.1087 64.7024 30.3871 64.7024 29.5212Z" fill="white"/>
<path d="M76.4351 29.449C76.4351 30.8922 76.0685 31.9745 75.2618 32.8404C74.5285 33.562 73.7219 33.9228 72.6953 33.9228C71.5953 33.9228 70.7887 33.562 70.2753 32.7683V37.1698H68.3687V28.0781C68.3687 27.2122 68.3687 26.2741 68.2954 25.3361H69.9087L69.982 26.6349C70.642 25.6247 71.5953 25.1196 72.8419 25.1196C73.8685 25.1196 74.6752 25.4804 75.3352 26.2741C76.0685 27.14 76.4351 28.1502 76.4351 29.449ZM74.4552 29.5212C74.4552 28.7275 74.2352 28.0059 73.8685 27.5008C73.4286 26.9236 72.9152 26.7071 72.2553 26.7071C71.8153 26.7071 71.3753 26.8514 71.0086 27.14C70.642 27.4286 70.3487 27.8616 70.2753 28.3667C70.202 28.5832 70.202 28.7996 70.202 28.9439V30.3149C70.202 30.8922 70.422 31.4694 70.7887 31.8302C71.1553 32.2632 71.6686 32.4796 72.2553 32.4796C72.9886 32.4796 73.5019 32.191 73.9419 31.6859C74.3085 31.1087 74.4552 30.3871 74.4552 29.5212Z" fill="white"/>
<path d="M87.288 30.4591C87.288 31.4693 86.9213 32.263 86.2613 32.8402C85.528 33.4897 84.4281 33.8504 83.0348 33.8504C81.7882 33.8504 80.7616 33.634 79.955 33.1289L80.3949 31.6136C81.2016 32.1187 82.1549 32.3351 83.1081 32.3351C83.8414 32.3351 84.3548 32.1908 84.7947 31.8301C85.1614 31.5414 85.3814 31.1085 85.3814 30.5312C85.3814 30.0261 85.2347 29.6654 84.8681 29.3767C84.5747 29.0881 83.9881 28.7273 83.2548 28.5108C81.2016 27.7893 80.1749 26.6348 80.1749 25.1916C80.1749 24.2536 80.5416 23.4599 81.2749 22.8826C82.0082 22.3054 82.9615 21.9446 84.1348 21.9446C85.2347 21.9446 86.1147 22.1611 86.7746 22.5218L86.3347 24.0371C85.6747 23.6763 84.9414 23.532 84.0614 23.532C83.4015 23.532 82.8882 23.6763 82.5215 24.0371C82.2282 24.3258 82.0815 24.6865 82.0815 25.1195C82.0815 25.5524 82.2282 25.9854 82.5948 26.274C82.8882 26.5626 83.4748 26.8512 84.2814 27.1399C85.308 27.5728 86.0413 28.0057 86.4813 28.583C87.068 29.0159 87.288 29.6654 87.288 30.4591Z" fill="white"/>
<path d="M93.521 26.7793H91.4678V30.8201C91.4678 31.8303 91.8344 32.3354 92.5677 32.3354C92.9344 32.3354 93.1544 32.3354 93.3744 32.2632L93.4477 33.7063C93.0811 33.8506 92.5677 33.9228 91.9811 33.9228C91.2478 33.9228 90.6611 33.7063 90.2212 33.2734C89.7812 32.8405 89.5612 32.0467 89.5612 31.0365V26.8515H88.3146V25.4805H89.5612V23.9652L91.3945 23.3879V25.4805H93.4477V26.7793H93.521Z" fill="white"/>
<path d="M102.907 29.4489C102.907 30.7477 102.541 31.7579 101.807 32.6238C101.001 33.4897 99.9741 33.9226 98.7275 33.9226C97.4808 33.9226 96.5275 33.4897 95.7209 32.6959C94.9876 31.9022 94.621 30.892 94.621 29.5932C94.621 28.2944 94.9876 27.212 95.7943 26.4183C96.5276 25.6246 97.5542 25.1917 98.8741 25.1917C100.121 25.1917 101.147 25.6246 101.881 26.4183C102.541 27.212 102.907 28.2222 102.907 29.4489ZM101.001 29.521C101.001 28.7273 100.854 28.0779 100.487 27.5728C100.121 26.9234 99.5341 26.5626 98.8008 26.5626C98.0675 26.5626 97.4808 26.9234 97.0409 27.5728C96.6742 28.1501 96.5276 28.7995 96.5276 29.5932C96.5276 30.3869 96.6742 31.0363 97.0409 31.5414C97.4808 32.1908 97.9942 32.5516 98.7275 32.5516C99.4608 32.5516 100.047 32.1908 100.414 31.5414C100.781 30.9642 101.001 30.3148 101.001 29.521Z" fill="white"/>
<path d="M109.067 26.9959C108.847 26.9959 108.7 26.9238 108.48 26.9238C107.82 26.9238 107.307 27.1402 106.94 27.6453C106.647 28.0783 106.5 28.6555 106.5 29.3049V33.7065H104.594V28.0061C104.594 27.0681 104.594 26.2022 104.521 25.4085H106.134L106.207 26.9959H106.28C106.5 26.4187 106.794 25.9857 107.234 25.6971C107.674 25.4085 108.114 25.2642 108.627 25.2642C108.774 25.2642 108.994 25.2642 109.067 25.2642V26.9959Z" fill="white"/>
<path d="M117.5 29.1603C117.5 29.521 117.5 29.7375 117.427 30.0261H111.78C111.78 30.8199 112.074 31.4693 112.587 31.9022C113.027 32.263 113.687 32.4795 114.42 32.4795C115.227 32.4795 116.033 32.3352 116.693 32.1187L116.987 33.4175C116.18 33.7783 115.227 33.9226 114.127 33.9226C112.807 33.9226 111.78 33.5618 111.047 32.7681C110.314 31.9744 109.947 30.9642 109.947 29.7375C109.947 28.5109 110.314 27.4285 110.974 26.5626C111.707 25.6967 112.66 25.1917 113.907 25.1917C115.153 25.1917 116.033 25.6246 116.693 26.5626C117.207 27.212 117.5 28.0779 117.5 29.1603ZM115.667 28.6552C115.667 28.0779 115.52 27.645 115.3 27.212C115.007 26.7069 114.494 26.4183 113.834 26.4183C113.247 26.4183 112.734 26.6348 112.367 27.1399C112.074 27.5728 111.854 28.0058 111.78 28.583H115.667V28.6552Z" fill="white"/>
<path d="M52.8229 15.0175C52.8229 16.0277 52.5295 16.8214 51.8696 17.3265C51.2829 17.8316 50.4763 18.048 49.3763 18.048C48.863 18.048 48.423 18.048 48.0564 17.9759V12.3477C48.5697 12.2755 49.083 12.2034 49.6697 12.2034C50.6963 12.2034 51.4296 12.4198 51.9429 12.8528C52.5295 13.3579 52.8229 14.0794 52.8229 15.0175ZM51.8696 15.0175C51.8696 14.3681 51.7229 13.863 51.3562 13.5022C50.9896 13.1414 50.4763 12.9971 49.8163 12.9971C49.523 12.9971 49.303 12.9971 49.083 13.0692V17.3265C49.2297 17.3265 49.3763 17.3265 49.743 17.3265C50.4763 17.3265 50.9896 17.11 51.3562 16.7492C51.6496 16.3163 51.8696 15.739 51.8696 15.0175Z" fill="white"/>
<path d="M58.0292 15.8837C58.0292 16.5331 57.8826 17.0381 57.5159 17.4711C57.1493 17.904 56.636 18.1205 55.976 18.1205C55.3894 18.1205 54.8761 17.904 54.5094 17.5432C54.1428 17.1103 53.9961 16.6052 53.9961 16.028C53.9961 15.3786 54.2161 14.8735 54.5827 14.4405C54.9494 14.0076 55.4627 13.8633 56.1227 13.8633C56.7093 13.8633 57.2226 14.0797 57.5893 14.4405C57.8093 14.8013 58.0292 15.3064 58.0292 15.8837ZM57.076 15.9558C57.076 15.595 57.0026 15.2342 56.856 15.0178C56.636 14.657 56.416 14.5127 56.0493 14.5127C55.6827 14.5127 55.3894 14.657 55.1694 15.0178C55.0227 15.3064 54.9494 15.595 54.9494 16.028C54.9494 16.3887 55.0227 16.7495 55.1694 16.966C55.3894 17.3268 55.6827 17.4711 55.976 17.4711C56.3427 17.4711 56.636 17.3268 56.7826 16.966C57.0026 16.6052 57.076 16.3166 57.076 15.9558Z" fill="white"/>
<path d="M64.9957 13.8633L63.6757 17.9762H62.7958L62.2825 16.1723C62.1358 15.7394 62.0625 15.3064 61.9158 14.8735C61.8425 15.3064 61.6958 15.7394 61.6225 16.1723L61.0359 17.9762H60.1559L58.9093 13.8633H59.8626L60.3759 15.8115C60.5226 16.2445 60.5959 16.6774 60.6692 17.1103C60.7426 16.7495 60.8159 16.3166 61.0359 15.8115L61.6225 13.8633H62.3558L62.9424 15.8115C63.0891 16.2445 63.1624 16.7495 63.3091 17.1825C63.3091 16.7495 63.4558 16.2445 63.5291 15.8115L64.0424 13.8633H64.9957Z" fill="white"/>
<path d="M69.7621 17.9761H68.8088V15.5949C68.8088 14.8734 68.5155 14.5126 68.0022 14.5126C67.7088 14.5126 67.4889 14.5847 67.3422 14.8012C67.1955 15.0177 67.0489 15.2342 67.0489 15.5228V17.9761H66.0956V15.0177C66.0956 14.6569 66.0956 14.2961 66.0956 13.8632H66.9022L66.9755 14.5126C67.0489 14.2961 67.2689 14.1518 67.4889 14.0075C67.7088 13.8632 68.0022 13.791 68.2955 13.791C68.6621 13.791 69.0288 13.9353 69.2488 14.1518C69.5421 14.4404 69.7621 14.8734 69.7621 15.5228V17.9761Z" fill="white"/>
<path d="M72.3287 17.9758H71.3754V11.9868H72.3287V17.9758Z" fill="white"/>
<path d="M77.7551 15.8837C77.7551 16.5331 77.6084 17.0381 77.2418 17.4711C76.8751 17.904 76.3618 18.1205 75.7018 18.1205C75.1152 18.1205 74.6019 17.904 74.2352 17.5432C73.8686 17.1103 73.7219 16.6052 73.7219 16.028C73.7219 15.3786 73.9419 14.8735 74.3086 14.4405C74.6752 14.0076 75.1885 13.8633 75.8485 13.8633C76.4351 13.8633 76.9484 14.0797 77.3151 14.4405C77.6084 14.8013 77.7551 15.3064 77.7551 15.8837ZM76.8018 15.9558C76.8018 15.595 76.7285 15.2342 76.5818 15.0178C76.3618 14.657 76.1418 14.5127 75.7752 14.5127C75.4085 14.5127 75.1152 14.657 74.8952 15.0178C74.7485 15.3064 74.6752 15.595 74.6752 16.028C74.6752 16.3887 74.7485 16.7495 74.8952 16.966C75.1152 17.3268 75.4085 17.4711 75.7018 17.4711C76.0685 17.4711 76.3618 17.3268 76.5085 16.966C76.7285 16.6052 76.8018 16.3166 76.8018 15.9558Z" fill="white"/>
<path d="M82.3016 17.9761H81.495L81.3483 17.471C81.055 17.8318 80.6884 18.0482 80.1017 18.0482C79.7351 18.0482 79.3684 17.9039 79.1484 17.6875C78.9284 17.471 78.8551 17.1824 78.8551 16.8216C78.8551 16.3165 79.0751 15.9557 79.5151 15.6671C79.8817 15.4506 80.5417 15.3063 81.275 15.3063V15.2341C81.275 14.729 80.9817 14.4404 80.395 14.4404C79.9551 14.4404 79.5884 14.5126 79.2951 14.729L79.0751 14.1518C79.4417 13.9353 79.9551 13.791 80.5417 13.791C81.6417 13.791 82.155 14.3683 82.155 15.5228V17.0381C82.2283 17.3988 82.2283 17.7596 82.3016 17.9761ZM81.275 16.533V15.9557C80.2484 15.9557 79.7351 16.2443 79.7351 16.7494C79.7351 16.9659 79.8084 17.1102 79.8817 17.2545C80.0284 17.3267 80.175 17.3988 80.3217 17.3988C80.5417 17.3988 80.6884 17.3267 80.9083 17.1824C81.055 17.0381 81.2017 16.8937 81.2017 16.6773C81.275 16.6773 81.275 16.6051 81.275 16.533Z" fill="white"/>
<path d="M87.508 17.9758H86.7013L86.628 17.3264C86.3347 17.8315 85.8947 18.048 85.308 18.048C84.7947 18.048 84.3547 17.8315 84.0614 17.4707C83.6948 17.1099 83.5481 16.6048 83.5481 15.9554C83.5481 15.306 83.6948 14.7288 84.0614 14.368C84.4281 14.0072 84.8681 13.7907 85.3814 13.7907C85.968 13.7907 86.3347 14.0072 86.5547 14.368V11.9868H87.508V16.8935C87.508 17.2542 87.508 17.615 87.508 17.9758ZM86.5547 16.244V15.5946C86.5547 15.4503 86.5547 15.3782 86.5547 15.306C86.4813 15.0895 86.408 14.8731 86.188 14.7288C86.0414 14.5844 85.8214 14.5123 85.6014 14.5123C85.2347 14.5123 85.0147 14.6566 84.7947 14.9452C84.5747 15.2339 84.5014 15.5946 84.5014 15.9554C84.5014 16.3884 84.5747 16.677 84.7947 16.9656C85.0147 17.2542 85.2347 17.3986 85.6014 17.3986C85.8947 17.3986 86.1147 17.2542 86.3347 17.0378C86.4813 16.8213 86.5547 16.5327 86.5547 16.244Z" fill="white"/>
<path d="M95.4276 15.8837C95.4276 16.5331 95.2809 17.0381 94.9143 17.4711C94.5476 17.904 94.0343 18.1205 93.3743 18.1205C92.7877 18.1205 92.2744 17.904 91.9077 17.5432C91.5411 17.1103 91.3944 16.6052 91.3944 16.028C91.3944 15.3786 91.6144 14.8735 91.981 14.4405C92.3477 14.0076 92.861 13.8633 93.521 13.8633C94.1076 13.8633 94.6209 14.0797 94.9876 14.4405C95.2809 14.8013 95.4276 15.3064 95.4276 15.8837ZM94.4743 15.9558C94.4743 15.595 94.4009 15.2342 94.2543 15.0178C94.0343 14.657 93.8143 14.5127 93.4476 14.5127C93.081 14.5127 92.7877 14.657 92.5677 15.0178C92.421 15.3064 92.3477 15.595 92.3477 16.028C92.3477 16.3887 92.421 16.7495 92.5677 16.966C92.7877 17.3268 93.081 17.4711 93.3743 17.4711C93.741 17.4711 94.0343 17.3268 94.1809 16.966C94.4009 16.6052 94.4743 16.3166 94.4743 15.9558Z" fill="white"/>
<path d="M100.414 17.9761H99.4607V15.5949C99.4607 14.8734 99.1674 14.5126 98.6541 14.5126C98.3608 14.5126 98.1408 14.5847 97.9941 14.8012C97.8475 15.0177 97.7008 15.2342 97.7008 15.5228V17.9761H96.7476V15.0177C96.7476 14.6569 96.7476 14.2961 96.7476 13.8632H97.5542L97.6275 14.5126C97.7008 14.2961 97.9208 14.1518 98.1408 14.0075C98.3608 13.8632 98.6541 13.791 98.9474 13.791C99.314 13.791 99.6807 13.9353 99.9007 14.1518C100.194 14.4404 100.414 14.8734 100.414 15.5228V17.9761Z" fill="white"/>
<path d="M106.647 14.585H105.62V16.6054C105.62 17.1105 105.767 17.3991 106.134 17.3991C106.28 17.3991 106.427 17.3991 106.574 17.327V18.0485C106.427 18.1207 106.134 18.1207 105.84 18.1207C105.474 18.1207 105.18 17.9764 104.96 17.7599C104.741 17.5434 104.667 17.1826 104.667 16.6775V14.585H104.081V13.8635H104.667V13.1419L105.547 12.8533V13.8635H106.574V14.585H106.647Z" fill="white"/>
<path d="M111.56 17.9758H110.607V15.6668C110.607 14.9452 110.314 14.5844 109.8 14.5844C109.36 14.5844 109.067 14.8009 108.92 15.2339C108.92 15.306 108.847 15.4503 108.847 15.5946V18.048H107.894V11.9868H108.847V14.4401C109.14 14.0072 109.58 13.7907 110.094 13.7907C110.46 13.7907 110.827 13.935 111.047 14.1515C111.34 14.4401 111.487 14.9452 111.487 15.5225V17.9758H111.56Z" fill="white"/>
<path d="M116.62 15.7393C116.62 15.8837 116.62 16.028 116.62 16.1723H113.834C113.834 16.6052 113.98 16.8938 114.2 17.1103C114.42 17.3268 114.713 17.3989 115.08 17.3989C115.52 17.3989 115.887 17.3268 116.18 17.1825L116.327 17.8319C115.96 17.9762 115.447 18.1205 114.933 18.1205C114.273 18.1205 113.76 17.904 113.394 17.5432C113.027 17.1825 112.807 16.6774 112.807 16.028C112.807 15.3786 112.954 14.8735 113.32 14.5127C113.687 14.0797 114.2 13.8633 114.787 13.8633C115.373 13.8633 115.813 14.0797 116.18 14.5127C116.547 14.8013 116.62 15.2342 116.62 15.7393ZM115.74 15.5229C115.74 15.2342 115.667 15.0178 115.593 14.8013C115.447 14.5127 115.153 14.4405 114.86 14.4405C114.567 14.4405 114.347 14.5848 114.127 14.8013C113.98 15.0178 113.907 15.2342 113.834 15.5229H115.74Z" fill="white"/>
<defs>
<linearGradient id="paint0_linear" x1="3.96055e-07" y1="47.0179" x2="143.896" y2="11.993" gradientUnits="userSpaceOnUse">
<stop stop-color="#5BC1CF"/>
<stop offset="1" stop-color="#66E3BE"/>
</linearGradient>
</defs>
</svg>
