<svg width="32" height="27" viewBox="0 0 32 27" fill="none" xmlns="http://www.w3.org/2000/svg">
<path fill-rule="evenodd" clip-rule="evenodd" d="M12.0608 23.0945C12.2511 23.0931 12.4332 23.0165 12.5673 22.8814C12.7013 22.7463 12.7765 22.5636 12.7763 22.3732V15.1598C12.7763 14.9698 12.7009 14.7877 12.5665 14.6534C12.4322 14.5191 12.2501 14.4436 12.0601 14.4436C11.8702 14.4436 11.688 14.5191 11.5537 14.6534C11.4194 14.7877 11.344 14.9698 11.344 15.1598V22.3732C11.344 22.5637 11.4194 22.7465 11.5537 22.8817C11.688 23.0168 11.8703 23.0933 12.0608 23.0945ZM15.9993 23.0945C16.1898 23.0933 16.372 23.0168 16.5062 22.8816C16.6404 22.7465 16.7157 22.5637 16.7155 22.3732V15.1598C16.7184 15.064 16.702 14.9686 16.6673 14.8792C16.6326 14.7899 16.5803 14.7084 16.5136 14.6396C16.4468 14.5708 16.3669 14.5161 16.2787 14.4788C16.1904 14.4415 16.0955 14.4222 15.9997 14.4222C15.9038 14.4222 15.8089 14.4415 15.7207 14.4788C15.6324 14.5161 15.5525 14.5708 15.4858 14.6396C15.419 14.7084 15.3667 14.7899 15.332 14.8792C15.2974 14.9686 15.281 15.064 15.2838 15.1598V22.3732C15.2837 22.5637 15.3589 22.7465 15.4931 22.8816C15.6273 23.0168 15.8095 23.0933 16 23.0945H15.9993ZM19.9385 23.0945C20.129 23.0933 20.3112 23.0168 20.4454 22.8816C20.5796 22.7465 20.6549 22.5637 20.6547 22.3732V15.1598C20.6576 15.0639 20.6412 14.9684 20.6064 14.879C20.5717 14.7895 20.5194 14.708 20.4526 14.6391C20.3858 14.5703 20.3058 14.5156 20.2175 14.4782C20.1291 14.4408 20.0342 14.4216 19.9382 14.4216C19.8423 14.4216 19.7473 14.4408 19.659 14.4782C19.5706 14.5156 19.4907 14.5703 19.4239 14.6391C19.357 14.708 19.3047 14.7895 19.27 14.879C19.2353 14.9684 19.2189 15.0639 19.2217 15.1598V22.3732C19.2217 22.5637 19.2971 22.7465 19.4314 22.8817C19.5657 23.0168 19.748 23.0933 19.9385 23.0945ZM30.3225 11.1905H1.6755C1.48421 11.1905 1.30075 11.2665 1.16548 11.4018C1.03022 11.537 0.954224 11.7205 0.954224 11.9118C0.954224 12.1031 1.03022 12.2865 1.16548 12.4218C1.30075 12.5571 1.48421 12.6331 1.6755 12.6331H3.64798L7.08542 25.7979C7.11972 25.9523 7.20601 26.0903 7.32984 26.1887C7.45368 26.2871 7.60756 26.3401 7.76574 26.3387H24.2355C24.3937 26.3401 24.5476 26.2871 24.6714 26.1887C24.7952 26.0903 24.8815 25.9523 24.9158 25.7979L28.352 12.635H30.3213C30.5126 12.6351 30.6961 12.5593 30.8315 12.4242C30.9669 12.289 31.043 12.1056 31.0432 11.9143C31.0434 11.723 30.9675 11.5395 30.8324 11.4041C30.6972 11.2687 30.5138 11.1926 30.3225 11.1924V11.1905ZM23.6985 24.898H8.30015L5.11294 12.635H26.8851L23.6985 24.898ZM12.9197 1.05738L7.18974 9.35306C7.11845 9.46212 7.07698 9.58797 7.06948 9.71805C7.06197 9.84813 7.08868 9.97791 7.14695 10.0945C7.20523 10.211 7.29302 10.3102 7.40159 10.3823C7.51016 10.4543 7.63572 10.4967 7.76574 10.5051C7.88163 10.5074 7.99601 10.4784 8.09681 10.4212C8.19762 10.364 8.28113 10.2806 8.33854 10.1799L14.0678 1.88426C14.1737 1.72528 14.2142 1.5316 14.181 1.34351C14.1477 1.15542 14.0432 0.987383 13.8893 0.87434C13.8155 0.817326 13.7305 0.776591 13.6398 0.754819C13.5492 0.733046 13.455 0.73073 13.3633 0.748024C13.2717 0.765318 13.1848 0.801831 13.1083 0.855153C13.0319 0.908476 12.9676 0.977398 12.9197 1.05738ZM18.112 0.876899C17.9582 0.990044 17.8538 1.15802 17.8204 1.34602C17.7871 1.53403 17.8273 1.72766 17.9328 1.88682L23.6621 10.1825C23.723 10.2808 23.8077 10.3621 23.9084 10.4189C24.0091 10.4757 24.1225 10.5062 24.2381 10.5076C24.31 10.5112 24.382 10.5002 24.4496 10.4754C24.5172 10.4505 24.5791 10.4123 24.6317 10.363C24.7856 10.2499 24.8901 10.082 24.9235 9.8939C24.9568 9.70585 24.9165 9.51217 24.8109 9.35306L19.0784 1.05738C19.0303 0.978003 18.966 0.909673 18.8897 0.85686C18.8134 0.804046 18.7268 0.767939 18.6356 0.750903C18.5443 0.733866 18.4506 0.736283 18.3603 0.757995C18.2701 0.779707 18.1855 0.820226 18.112 0.876899Z" fill="#5BC1CF"/>
</svg>
