<svg width="29" height="29" viewBox="0 0 29 29" fill="none" xmlns="http://www.w3.org/2000/svg">
<path d="M14.4996 1.20825C7.15893 1.20825 1.20789 7.15929 1.20789 14.4999C1.20789 21.8408 7.15893 27.7916 14.4996 27.7916C21.8405 27.7916 27.7912 21.8408 27.7912 14.4999C27.7912 7.15929 21.8405 1.20825 14.4996 1.20825ZM14.4996 25.3749C8.49353 25.3749 3.62455 20.5059 3.62455 14.4999C3.62455 8.4939 8.49353 3.62492 14.4996 3.62492C20.5056 3.62492 25.3745 8.4939 25.3745 14.4999C25.3745 20.5059 20.5056 25.3749 14.4996 25.3749Z" fill="#5BC1CF"/>
<path d="M15.7079 13.9995V7.25008C15.7079 6.58278 15.1669 6.04175 14.4996 6.04175C13.8323 6.04175 13.2912 6.58278 13.2912 7.25008V14.5001C13.2912 14.5028 13.2921 14.5055 13.2921 14.5082C13.2924 14.5847 13.3 14.6611 13.3151 14.7363C13.3223 14.7735 13.3359 14.807 13.3465 14.8432C13.3583 14.8831 13.3674 14.9236 13.3834 14.9626C13.4009 15.0043 13.4244 15.0423 13.4462 15.0816C13.4625 15.1118 13.4755 15.142 13.4945 15.1707C13.5389 15.2375 13.5894 15.3 13.6459 15.3559L17.0627 18.773C17.5346 19.2449 18.3004 19.2449 18.7719 18.773C19.2438 18.3012 19.2438 17.5354 18.7719 17.0645L15.7079 13.9995Z" fill="#5BC1CF"/>
</svg>
