<svg width="55" height="75" viewBox="0 0 55 75" fill="none" xmlns="http://www.w3.org/2000/svg">
<path d="M29.2407 46.2091L21.2311 45.593C21.0149 52.671 20.8741 54.0056 20.6149 54.8349C20.6494 55.0395 11.3737 68.3896 11.3737 68.3896C11.3737 68.3896 10.4278 69.3347 11.9894 70.8541C13.369 72.1964 14.5685 72.0864 15.07 71.4702C15.5716 70.8541 25.835 57.5948 26.7766 56.6833C27.896 55.6868 28.3555 54.5425 28.6246 50.522C28.8936 46.5015 29.2407 46.2091 29.2407 46.2091Z" fill="#333333" stroke="#333333" stroke-width="3.53324"/>
<path d="M29.8954 51.1186C29.6192 50.5348 29.3469 49.9297 29.8954 46.9488C30.3904 44.259 33.3277 45.9487 34.4534 48.2337C45.5973 70.8547 44.3651 71.471 43.749 72.0871C43.1329 72.7033 42.5167 72.7033 41.307 72.6981C40.1059 72.6931 38.5997 69.5106 30.0801 51.5088L29.8954 51.1186Z" fill="black" stroke="black" stroke-width="3.53324"/>
<path d="M51.1393 41.2803C44.1079 42.5576 39.5578 34.2671 34.5039 32.6545C36.7284 32.8443 38.5233 32.4936 40.6651 30.8062C44.4762 36.9674 50.6357 36.9657 52.4858 38.8158C53.7181 40.048 52.5197 41.0295 51.1393 41.2803Z" fill="black" stroke="black" stroke-width="3.53324"/>
<path d="M16.9981 45.5938C16.5803 46.131 15.8802 46.2099 15.1496 46.2099C9.61558 45.9693 13.9173 32.039 13.9173 32.039C13.9173 32.039 14.714 27.7837 15.4048 26.4935C16.4764 24.4924 19.4647 24.6443 20.0808 24.6449C20.6969 24.6455 23.1614 28.3411 23.1614 28.9578C23.1614 29.5745 19.0265 31.423 17.8693 33.887C16.1332 37.5837 17.2532 42.5127 17.2532 42.5127C17.2532 42.5127 17.6586 44.7446 16.9981 45.5938Z" fill="black"/>
<path d="M15.1496 46.2099C15.6309 46.2099 14.6684 46.2099 15.1496 46.2099ZM15.1496 46.2099C15.8802 46.2099 16.5803 46.131 16.9981 45.5938C17.6586 44.7446 17.2532 42.5127 17.2532 42.5127C17.2532 42.5127 16.1332 37.5837 17.8693 33.887C19.0265 31.423 23.1614 29.5745 23.1614 28.9578C23.1614 28.3411 20.6969 24.6455 20.0808 24.6449C19.4647 24.6443 16.4764 24.4924 15.4048 26.4935C14.714 27.7837 13.9173 32.039 13.9173 32.039C13.9173 32.039 9.61558 45.9693 15.1496 46.2099ZM15.1496 46.2099C15.39 46.2203 14.909 46.2099 15.1496 46.2099Z" stroke="black" stroke-width="3.53324"/>
<path d="M9.12895 10.4736H21.4514C24.532 10.4736 28.8449 12.9381 29.461 14.1704C30.0772 15.4026 35.0061 16.6349 35.0061 16.6349C38.3108 18.9958 39.8912 22.2362 40.5513 24.0284C41.2114 25.8205 41.1688 28.3412 41.1674 30.1896C41.1672 30.5086 41.167 30.6991 41.1668 30.8056C41.167 30.9119 41.1672 31.1025 41.1674 31.4218C41.1688 33.2702 35.0061 32.038 35.0061 33.8863C35.0061 35.7347 35.0076 44.9766 35.0061 46.2088C35.0047 47.4411 23.9145 46.2088 22.0675 46.2088C20.2206 46.2088 17.2515 43.1282 17.2515 41.2798C17.2515 39.4315 17.4026 36.8215 18.4837 33.8863C19.4318 31.3124 22.7808 30.6208 22.6823 27.7251C22.6004 25.3201 20.3925 24.6294 17.8676 25.2606C15.4031 25.8767 15.7804 25.122 14.787 27.109C14.1709 28.3412 13.5547 31.4219 13.5547 31.4219C13.331 32.178 12.5641 34.5264 12.3225 35.7347C11.7064 38.8153 11.7064 39.4315 11.0902 38.8153C10.4741 38.1992 1.22657 33.1245 0.503098 32.038C-0.22037 30.9514 -0.112913 30.8057 0.503211 28.3412C1.11933 25.8767 6.04833 10.4736 9.12895 10.4736Z" fill="#5BC1CF"/>
<path d="M9.12895 10.4736H21.4514C24.532 10.4736 28.8449 12.9381 29.461 14.1704C30.0772 15.4026 35.0061 16.6349 35.0061 16.6349C38.3108 18.9958 39.8912 22.2362 40.5513 24.0284C41.2114 25.8205 41.1688 28.3412 41.1674 30.1896C41.1672 30.5086 41.167 30.6991 41.1668 30.8056C41.167 30.9119 41.1672 31.1025 41.1674 31.4218C41.1688 33.2702 35.0061 32.038 35.0061 33.8863C35.0061 35.7347 35.0076 44.9766 35.0061 46.2088C35.0047 47.4411 23.9145 46.2088 22.0675 46.2088C20.2206 46.2088 17.2515 43.1282 17.2515 41.2798C17.2515 39.4315 17.4026 36.8215 18.4837 33.8863C19.4318 31.3124 22.7808 30.6208 22.6823 27.7251C22.6004 25.3201 20.3925 24.6294 17.8676 25.2606C15.4031 25.8767 15.7804 25.122 14.787 27.109C14.1709 28.3412 13.5547 31.4219 13.5547 31.4219C13.331 32.178 12.5641 34.5264 12.3225 35.7347C11.7064 38.8153 11.7064 39.4315 11.0902 38.8153C10.4741 38.1992 1.22657 33.1245 0.503098 32.038C-0.22037 30.9514 -0.112913 30.8057 0.503211 28.3412C1.11933 25.8767 6.04833 10.4736 9.12895 10.4736Z" fill="url(#paint0_linear)"/>
<path d="M22.1797 28.3419C23.4119 28.3419 25.8764 20.3323 25.2603 18.4839" stroke="#14A0B4" stroke-width="1.76662"/>
<circle cx="35.1151" cy="8.00961" r="8.00961" fill="#4F4F4F"/>
<path d="M34.5039 20.9485C35.12 20.9485 35.4843 24.2896 35.7362 26.4936C36.0094 28.8842 35.7362 33.8871 35.7362 32.6548" stroke="#14A0B4" stroke-width="1.76662"/>
<defs>
<linearGradient id="paint0_linear" x1="30.1901" y1="20.3316" x2="3.08062" y2="31.4218" gradientUnits="userSpaceOnUse">
<stop stop-color="#7CD8E4"/>
<stop offset="1" stop-color="#5BC1CF"/>
</linearGradient>
</defs>
</svg>
