<svg width="250" height="75" viewBox="0 0 250 75" fill="none" xmlns="http://www.w3.org/2000/svg">
<rect width="250" height="75" rx="37.5" fill="white"/>
<path fill-rule="evenodd" clip-rule="evenodd" d="M134.547 59.4099C133.827 58.8196 133.227 57.8751 132.867 57.1667L135.267 56.1041C135.387 56.3402 135.627 56.8125 135.987 57.1667C136.587 57.8751 137.427 58.2293 138.387 58.2293C139.347 58.2293 140.426 57.757 140.906 57.0486C141.386 56.3402 141.626 55.5138 141.626 54.5693V53.6247C139.947 55.7499 136.107 55.5138 134.067 53.2705C131.788 50.9092 131.788 47.0131 134.067 44.5337C136.347 42.4085 139.587 42.0543 141.626 44.1795V43.1169H144.266V54.2151C144.266 57.0486 143.186 58.7016 141.866 59.528C140.906 60.2364 139.587 60.4725 138.387 60.4725C136.947 60.8267 135.627 60.3545 134.547 59.4099ZM197.059 60.0003L199.579 54.097L195.14 43.9434H197.659L200.779 51.1454L203.899 43.9434H206.418L199.579 60.0003H197.059ZM184.941 54.4512C184.221 53.7428 183.861 52.6802 183.861 51.7357C183.861 50.9092 184.101 49.9647 184.821 49.3744C185.901 48.3118 187.341 47.8395 189.02 47.8395C190.1 47.8395 191.06 48.0756 191.66 48.4298C191.66 46.6589 190.22 45.9505 189.02 45.9505C187.941 45.9505 186.981 46.5408 186.501 47.4853L184.221 46.5408C184.581 45.4782 185.901 43.5892 188.9 43.5892C190.34 43.5892 191.78 44.0614 192.74 45.124C193.7 46.0685 194.06 47.3673 194.06 49.0202V55.1596H191.66V54.097C191.3 54.4512 190.82 54.9235 190.34 55.1596C189.74 55.5138 188.9 55.6318 188.301 55.6318C187.101 55.5138 185.781 55.1596 184.941 54.4512ZM105.511 49.1382C105.511 46.1866 107.79 42.9988 111.75 42.9988C115.709 42.9988 117.989 46.1866 117.989 49.1382C117.989 52.0899 115.709 55.2776 111.75 55.2776C107.79 55.2776 105.511 52.0899 105.511 49.1382ZM118.949 49.1382C118.949 46.1866 121.229 42.9988 125.188 42.9988C129.148 42.9988 131.428 46.1866 131.428 49.1382C131.428 52.0899 129.148 55.2776 125.188 55.2776C121.229 55.2776 118.949 52.0899 118.949 49.1382ZM88.7128 52.326C84.9933 48.5479 85.1133 42.6446 88.8328 38.8665C90.7526 36.9775 93.1523 36.033 95.672 36.033C98.0717 36.033 100.471 36.8594 102.271 38.6304L100.471 40.5195C97.8317 37.922 93.5122 37.922 90.8725 40.6375C88.2329 43.353 88.1129 47.7215 90.7526 50.437C93.3922 53.1525 97.8317 53.2705 100.591 50.555C101.551 49.6105 101.791 48.4298 102.031 47.2492H95.672V44.6517H104.551C104.671 45.3601 104.671 45.9505 104.671 46.6589C104.671 48.784 103.711 51.1454 102.271 52.5621C100.591 54.2151 98.3116 55.1596 95.7919 55.1596C93.1523 55.2777 90.6326 54.2151 88.7128 52.326ZM151.705 53.5067C149.545 51.1454 149.545 47.1311 151.705 44.7698C153.865 42.4085 157.704 42.4085 159.864 44.7698C160.584 45.5963 161.064 46.5408 161.424 47.6034L153.145 51.0273C153.625 51.9718 154.585 52.9163 156.145 52.9163C157.464 52.9163 158.304 52.4441 159.264 51.1454L161.424 52.5621C161.184 52.9163 160.824 53.1525 160.584 53.5067C158.304 55.868 153.865 55.868 151.705 53.5067ZM167.183 55.1596V38.9846H172.463C175.702 38.9846 178.102 41.2278 178.102 43.9434C178.102 46.6589 175.822 48.9021 172.942 48.9021H169.703V55.2776H167.183V55.1596ZM179.782 55.1596V38.9846H182.301V55.2776H179.782V55.1596ZM146.066 54.9235V36.7414H148.825V54.9235H146.066ZM191.66 50.437C191.06 50.0828 190.1 49.8466 189.26 49.8466C187.461 49.8466 186.501 50.7912 186.501 51.7357C186.501 52.7983 187.581 53.3886 188.541 53.3886C189.98 53.2705 191.66 52.2079 191.66 50.437ZM115.11 49.1382C115.11 47.3673 113.79 45.3601 111.63 45.3601C109.47 45.3601 108.15 47.3673 108.15 49.1382C108.15 50.9092 109.47 52.9163 111.63 52.9163C113.91 52.7983 115.11 50.9092 115.11 49.1382ZM128.668 49.1382C128.668 47.3673 127.348 45.3601 125.188 45.3601C123.029 45.3601 121.709 47.3673 121.709 49.1382C121.709 50.9092 123.029 52.9163 125.188 52.9163C127.348 52.7983 128.668 50.9092 128.668 49.1382ZM141.746 50.2008C141.746 50.0828 141.866 49.9647 141.866 49.7286C141.866 49.4924 141.866 49.2563 141.866 49.0202C141.866 48.784 141.866 48.5479 141.866 48.4298V48.3118C141.866 48.0756 141.746 47.9576 141.746 47.7215C141.266 46.3047 140.066 45.2421 138.507 45.2421C136.707 45.2421 135.147 46.895 135.147 49.0202C135.147 51.0273 136.707 52.6802 138.507 52.6802C140.066 52.7983 141.266 51.7357 141.746 50.2008ZM152.665 48.9021L158.184 46.5408C157.584 45.5963 156.744 45.2421 155.905 45.2421C153.865 45.3601 152.425 47.7215 152.665 48.9021ZM175.582 43.9434C175.582 42.5266 174.502 41.3459 172.822 41.3459H169.823V46.5408H172.942C174.382 46.5408 175.582 45.3601 175.582 43.9434Z" fill="#5BC1CF"/>
<path d="M86.5566 24.4621C86.5566 21.8646 88.4764 20.2117 90.9961 20.2117C92.6759 20.2117 93.7558 20.9201 94.3557 21.8646L93.1558 22.573C92.6759 21.9827 91.956 21.5104 90.9961 21.5104C89.3163 21.5104 88.1165 22.6911 88.1165 24.4621C88.1165 26.233 89.3163 27.4137 90.9961 27.4137C91.836 27.4137 92.5559 27.0595 93.0358 26.7053V25.4066H90.5162V24.1079H94.4757V27.1776C93.6358 28.1221 92.4359 28.7124 90.9961 28.7124C88.4764 28.7124 86.5566 27.0595 86.5566 24.4621Z" fill="#5BC1CF"/>
<path d="M96.2734 28.5949V20.3303H102.033V21.629H97.7133V23.7542H101.913V25.0529H97.7133V27.2962H102.033V28.5949H96.2734Z" fill="#5BC1CF"/>
<path d="M105.992 28.5949V21.629H103.473V20.3303H110.072V21.629H107.552V28.5949H105.992Z" fill="#5BC1CF"/>
<path d="M115.109 28.5949V20.3303H116.549V28.5949H115.109Z" fill="#5BC1CF"/>
<path d="M120.75 28.5949V21.629H118.23V20.3303H124.83V21.629H122.31V28.5949H120.75Z" fill="#5BC1CF"/>
<path d="M129.51 24.4621C129.51 21.9827 131.31 20.2117 133.829 20.2117C136.349 20.2117 138.149 21.9827 138.149 24.4621C138.149 26.9414 136.349 28.7124 133.829 28.7124C131.19 28.7124 129.51 26.9414 129.51 24.4621ZM136.469 24.4621C136.469 22.8091 135.389 21.5104 133.709 21.5104C132.029 21.5104 130.95 22.8091 130.95 24.4621C130.95 26.115 132.029 27.4137 133.709 27.4137C135.389 27.4137 136.469 26.115 136.469 24.4621Z" fill="#5BC1CF"/>
<path d="M145.587 28.5949L141.268 22.6916V28.5949H139.828V20.3303H141.268L145.587 25.9974V20.3303H147.027V28.5949H145.587Z" fill="#5BC1CF"/>
<path d="M75.8759 39.1027L43 20.5664V57.757L75.8759 39.1027Z" fill="#5BC1CF"/>
</svg>
