<svg width="145" height="47" viewBox="0 0 145 47" fill="none" xmlns="http://www.w3.org/2000/svg">
<rect width="144.065" height="47" rx="23.5" fill="url(#paint0_linear)"/>
<path fill-rule="evenodd" clip-rule="evenodd" d="M79.9386 37.4479C79.4848 37.0758 79.1067 36.4805 78.8798 36.0339L80.3924 35.3642C80.468 35.513 80.6193 35.8107 80.8462 36.0339C81.2243 36.4805 81.7537 36.7037 82.3587 36.7037C82.9638 36.7037 83.6445 36.406 83.947 35.9595C84.2495 35.513 84.4008 34.9921 84.4008 34.3967V33.8013C83.3419 35.1409 80.9218 34.9921 79.6361 33.5781C78.1991 32.0897 78.1991 29.6338 79.6361 28.071C81.073 26.7314 83.1151 26.5082 84.4008 27.8477V27.178H86.0646V34.1734C86.0646 35.9595 85.3839 37.0014 84.552 37.5223C83.947 37.9689 83.1151 38.1177 82.3587 38.1177C81.4512 38.341 80.6193 38.0433 79.9386 37.4479ZM119.342 37.82L120.93 34.099L118.132 27.6989H119.72L121.686 32.2385L123.653 27.6989H125.241L120.93 37.82H119.342ZM111.703 34.3223C111.249 33.8758 111.023 33.206 111.023 32.6106C111.023 32.0897 111.174 31.4943 111.628 31.1222C112.308 30.4524 113.216 30.1548 114.275 30.1548C114.955 30.1548 115.56 30.3036 115.938 30.5269C115.938 29.4106 115.031 28.964 114.275 28.964C113.594 28.964 112.989 29.3361 112.686 29.9315L111.249 29.3361C111.476 28.6664 112.308 27.4756 114.199 27.4756C115.107 27.4756 116.014 27.7733 116.619 28.4431C117.224 29.0385 117.451 29.8571 117.451 30.899V34.7688H115.938V34.099C115.712 34.3223 115.409 34.62 115.107 34.7688C114.728 34.9921 114.199 35.0665 113.821 35.0665C113.065 34.9921 112.233 34.7688 111.703 34.3223ZM61.6361 30.9734C61.6361 29.1129 63.0731 27.1035 65.5689 27.1035C68.0647 27.1035 69.5017 29.1129 69.5017 30.9734C69.5017 32.8339 68.0647 34.8432 65.5689 34.8432C63.0731 34.8432 61.6361 32.8339 61.6361 30.9734ZM70.1067 30.9734C70.1067 29.1129 71.5437 27.1035 74.0395 27.1035C76.5352 27.1035 77.9722 29.1129 77.9722 30.9734C77.9722 32.8339 76.5352 34.8432 74.0395 34.8432C71.5437 34.8432 70.1067 32.8339 70.1067 30.9734ZM51.0479 32.9827C48.7034 30.6013 48.779 26.8803 51.1236 24.4988C52.3337 23.3081 53.8463 22.7128 55.4345 22.7128C56.9471 22.7128 58.4597 23.2337 59.5941 24.35L58.4597 25.5407C56.7958 23.9035 54.0731 23.9035 52.4093 25.6151C50.7454 27.3268 50.6698 30.0803 52.3337 31.792C53.9975 33.5037 56.7958 33.5781 58.5353 31.8664C59.1403 31.2711 59.2916 30.5269 59.4429 29.7827H55.4345V28.1454H61.0311C61.1067 28.5919 61.1067 28.964 61.1067 29.4106C61.1067 30.7501 60.5017 32.2385 59.5941 33.1316C58.5353 34.1734 57.0983 34.7688 55.5101 34.7688C53.8463 34.8432 52.258 34.1734 51.0479 32.9827ZM90.7537 33.7269C89.3923 32.2385 89.3923 29.7082 90.7537 28.2198C92.115 26.7314 94.5352 26.7314 95.8965 28.2198C96.3503 28.7408 96.6528 29.3361 96.8797 30.0059L91.6612 32.1641C91.9638 32.7595 92.5688 33.3548 93.552 33.3548C94.3839 33.3548 94.9133 33.0571 95.5184 32.2385L96.8797 33.1316C96.7284 33.3548 96.5016 33.5037 96.3503 33.7269C94.9133 35.2153 92.115 35.2153 90.7537 33.7269ZM100.51 34.7688V24.5733H103.838C105.88 24.5733 107.392 25.9872 107.392 27.6989C107.392 29.4106 105.955 30.8245 104.14 30.8245H102.098V34.8432H100.51V34.7688ZM108.451 34.7688V24.5733H110.039V34.8432H108.451V34.7688ZM87.1991 34.62V23.1593H88.9386V34.62H87.1991ZM115.938 31.792C115.56 31.5687 114.955 31.4199 114.426 31.4199C113.291 31.4199 112.686 32.0153 112.686 32.6106C112.686 33.2804 113.367 33.6525 113.972 33.6525C114.88 33.5781 115.938 32.9083 115.938 31.792ZM67.6865 30.9734C67.6865 29.8571 66.8546 28.5919 65.4933 28.5919C64.1319 28.5919 63.3 29.8571 63.3 30.9734C63.3 32.0897 64.1319 33.3548 65.4933 33.3548C66.9302 33.2804 67.6865 32.0897 67.6865 30.9734ZM76.2327 30.9734C76.2327 29.8571 75.4008 28.5919 74.0395 28.5919C72.6781 28.5919 71.8462 29.8571 71.8462 30.9734C71.8462 32.0897 72.6781 33.3548 74.0395 33.3548C75.4008 33.2804 76.2327 32.0897 76.2327 30.9734ZM84.4764 31.6432C84.4764 31.5687 84.552 31.4943 84.552 31.3455C84.552 31.1966 84.552 31.0478 84.552 30.899C84.552 30.7501 84.552 30.6013 84.552 30.5269V30.4524C84.552 30.3036 84.4764 30.2292 84.4764 30.0803C84.1739 29.1873 83.4176 28.5175 82.4344 28.5175C81.2999 28.5175 80.3167 29.5594 80.3167 30.899C80.3167 32.1641 81.2999 33.206 82.4344 33.206C83.4176 33.2804 84.1739 32.6106 84.4764 31.6432ZM91.3587 30.8245L94.8377 29.3361C94.4595 28.7408 93.9301 28.5175 93.4007 28.5175C92.115 28.5919 91.2075 30.0803 91.3587 30.8245ZM105.804 27.6989C105.804 26.8059 105.123 26.0617 104.065 26.0617H102.174V29.3361H104.14C105.048 29.3361 105.804 28.5919 105.804 27.6989Z" fill="white"/>
<path d="M49.6866 15.4192C49.6866 13.7819 50.8967 12.7401 52.485 12.7401C53.5438 12.7401 54.2245 13.1866 54.6026 13.7819L53.8463 14.2285C53.5438 13.8564 53.09 13.5587 52.485 13.5587C51.4261 13.5587 50.6698 14.3029 50.6698 15.4192C50.6698 16.5355 51.4261 17.2797 52.485 17.2797C53.0144 17.2797 53.4681 17.0564 53.7707 16.8332V16.0145H52.1824V15.1959H54.6782V17.1309C54.1488 17.7262 53.3925 18.0983 52.485 18.0983C50.8967 18.0983 49.6866 17.0564 49.6866 15.4192Z" fill="white"/>
<path d="M55.8126 18.0241V12.8147H59.4429V13.6333H56.7202V14.9729H59.3672V15.7915H56.7202V17.2055H59.4429V18.0241H55.8126Z" fill="white"/>
<path d="M61.9386 18.0241V13.6333H60.3504V12.8147H64.5101V13.6333H62.9218V18.0241H61.9386Z" fill="white"/>
<path d="M67.6865 18.0241V12.8147H68.594V18.0241H67.6865Z" fill="white"/>
<path d="M71.2411 18.0241V13.6333H69.6529V12.8147H73.8126V13.6333H72.2243V18.0241H71.2411Z" fill="white"/>
<path d="M76.7621 15.4192C76.7621 13.8564 77.8966 12.7401 79.4848 12.7401C81.073 12.7401 82.2075 13.8564 82.2075 15.4192C82.2075 16.982 81.073 18.0983 79.4848 18.0983C77.821 18.0983 76.7621 16.982 76.7621 15.4192ZM81.1487 15.4192C81.1487 14.3773 80.468 13.5587 79.4092 13.5587C78.3504 13.5587 77.6697 14.3773 77.6697 15.4192C77.6697 16.4611 78.3504 17.2797 79.4092 17.2797C80.468 17.2797 81.1487 16.4611 81.1487 15.4192Z" fill="white"/>
<path d="M86.8966 18.0241L84.1739 14.3031V18.0241H83.2663V12.8147H84.1739L86.8966 16.3868V12.8147H87.8041V18.0241H86.8966Z" fill="white"/>
<path d="M42.9554 24.6473L22.2328 12.9634V36.4057L42.9554 24.6473Z" fill="white"/>
<defs>
<linearGradient id="paint0_linear" x1="-1.93255e-07" y1="47.0179" x2="143.91" y2="13.5127" gradientUnits="userSpaceOnUse">
<stop stop-color="#5BC1CF"/>
<stop offset="1" stop-color="#66E3BE"/>
</linearGradient>
</defs>
</svg>
