<svg width="18" height="18" viewBox="0 0 18 18" fill="none" xmlns="http://www.w3.org/2000/svg">
<path d="M17.3214 9.13798C17.3214 7.98084 16.4676 7.36611 15.2723 7.36611H11.823C12.0621 6.38977 12.1987 5.44959 12.1987 4.65405C12.1987 1.50807 11.379 0.857178 10.6618 0.857178C10.1837 0.857178 9.84219 0.893338 9.36406 1.21878C9.22746 1.29111 9.15915 1.43575 9.125 1.58039L8.61272 4.50941C8.06629 6.06432 6.66607 7.40227 5.53906 8.30629V16.0447C5.91473 16.0447 6.39286 16.2616 6.83683 16.5148C7.38326 16.8041 7.96384 17.0933 8.61272 17.0933H13.4964C14.521 17.0933 15.2723 16.2255 15.2723 15.4661C15.2723 15.3215 15.2723 15.1768 15.2382 15.0683C15.8871 14.8152 16.2969 14.2366 16.2969 13.5858C16.2969 13.2603 16.2286 12.971 16.1261 12.7541C16.5018 12.4648 16.9116 11.9947 16.9116 11.4161C16.9116 11.1268 16.775 10.7652 16.5701 10.5121C17.0141 10.1505 17.3214 9.64423 17.3214 9.13798ZM16.2627 9.13798C16.2627 9.82503 15.5797 9.89736 15.4772 10.2228C15.3748 10.5844 15.8871 10.7291 15.8871 11.3799C15.8871 12.067 15.1016 12.067 14.9991 12.3924C14.8625 12.7902 15.2382 12.9349 15.2382 13.5858C15.2382 13.6219 15.2382 13.6581 15.2382 13.6942C15.1357 14.2366 14.3502 14.2728 14.2136 14.4898C14.077 14.7429 14.2478 14.8875 14.2478 15.4661C14.2478 15.7916 13.9062 16.0085 13.4964 16.0085H8.61272C8.23705 16.0085 7.75893 15.7916 7.31496 15.5384C6.90513 15.3215 6.49531 15.1045 6.05134 14.996V9.24647C7.31496 8.23397 8.95424 6.67905 9.60313 4.79869C9.60313 4.76253 9.60312 4.72638 9.63728 4.72638L10.1154 2.01433C10.2862 1.942 10.4228 1.942 10.696 1.942C10.7984 1.942 11.2083 2.59289 11.2083 4.65405C11.2083 5.44959 11.0717 6.35361 10.7984 7.36611H10.6618C10.3886 7.36611 10.1496 7.61923 10.1496 7.90852C10.1496 8.1978 10.3886 8.45093 10.6618 8.45093H15.2723C15.7846 8.45093 16.2627 8.70405 16.2627 9.13798Z" fill="#5BC1CF"/>
<path d="M5.02677 17.1294H1.95311C1.37253 17.1294 0.928558 16.6593 0.928558 16.0445V8.45079C0.928558 7.83606 1.37253 7.36597 1.95311 7.36597H5.02677C5.60735 7.36597 6.05133 7.83606 6.05133 8.45079V16.0445C6.05133 16.6593 5.60735 17.1294 5.02677 17.1294ZM1.95311 8.45079V16.0445H5.02677V8.45079H1.95311Z" fill="#5BC1CF"/>
</svg>
