<svg width="17" height="18" viewBox="0 0 17 18" fill="none" xmlns="http://www.w3.org/2000/svg">
<path fill-rule="evenodd" clip-rule="evenodd" d="M8.0528 16.6028C6.21788 16.5156 4.47625 15.7683 3.14866 14.4987C1.82108 13.229 0.996931 11.5224 0.828005 9.69319C0.793416 9.23157 0.793416 8.76801 0.828005 8.30639C0.983401 6.62152 1.69542 5.03636 2.85169 3.80106C4.00797 2.56577 5.54267 1.75067 7.2136 1.48439C7.60374 1.42065 7.99874 1.39147 8.394 1.39719C8.78927 1.3915 9.18427 1.42068 9.5744 1.48439C11.2453 1.75067 12.78 2.56577 13.9363 3.80106C15.0926 5.03636 15.8046 6.62152 15.96 8.30639C15.9946 8.76801 15.9946 9.23157 15.96 9.69319C15.7972 11.4598 15.0226 13.1141 13.7698 14.3702C12.5171 15.6264 10.8649 16.4056 9.0988 16.5732C8.8616 16.596 8.2624 16.6132 8.0524 16.6012L8.0528 16.6028ZM9.1512 16.0252C10.6901 15.8623 12.1332 15.1998 13.2601 14.1392C14.3869 13.0786 15.1355 11.6782 15.3912 10.152C15.4597 9.767 15.4893 9.3761 15.4796 8.98519C15.4893 8.59414 15.4597 8.20311 15.3912 7.81799C15.16 6.43656 14.5245 5.15468 13.5649 4.13441C12.6053 3.11414 11.3647 2.4013 10 2.08599C9.48329 1.96376 8.95329 1.90678 8.4224 1.91639C8.03187 1.90661 7.64135 1.93636 7.2568 2.00519C5.87568 2.23822 4.59471 2.87568 3.57595 3.8369C2.5572 4.79812 1.84644 6.03992 1.5336 7.40519C1.41179 7.92278 1.35509 8.45355 1.3648 8.98519C1.35482 9.37611 1.38444 9.76703 1.4532 10.152C1.71844 11.7324 2.51146 13.1762 3.70285 14.2478C4.89425 15.3195 6.41368 15.9558 8.0132 16.0528C8.1844 16.066 8.9452 16.048 9.1488 16.0252H9.1512ZM8.1268 10.4652V8.12239H8.6612V12.8056H8.1268V10.464V10.4652ZM8.1268 5.46239V5.19359H8.6612V5.72879H8.1268V5.46119V5.46239Z" fill="#5BC1CF" stroke="#5BC1CF" stroke-linejoin="round"/>
</svg>
