<svg width="274" height="274" viewBox="0 0 274 274" fill="none" xmlns="http://www.w3.org/2000/svg">
<path d="M233.094 198.383H158.367V91.6297C158.367 85.7582 163.171 80.9543 169.043 80.9543H211.744C214.946 80.9543 218.149 82.5556 220.284 85.2245L252.31 126.324C253.911 128.46 254.445 130.595 254.445 132.73V177.032C254.445 188.775 244.837 198.383 233.094 198.383Z" fill="#ECF0F1"/>
<path d="M40.9229 198.383H158.351V70.2791C158.351 58.5363 148.744 48.9285 137.001 48.9285H46.2606C31.3151 48.9285 19.5723 60.6713 19.5723 75.6168V177.032C19.5723 188.775 29.1801 198.383 40.9229 198.383Z" fill="#5BC1CF"/>
<path d="M206.386 225.074C221.126 225.074 233.074 213.125 233.074 198.385C233.074 183.646 221.126 171.697 206.386 171.697C191.646 171.697 179.697 183.646 179.697 198.385C179.697 213.125 191.646 225.074 206.386 225.074Z" fill="#37474F"/>
<path d="M83.6065 225.074C98.3462 225.074 110.295 213.125 110.295 198.385C110.295 183.646 98.3462 171.697 83.6065 171.697C68.8669 171.697 56.918 183.646 56.918 198.385C56.918 213.125 68.8669 225.074 83.6065 225.074Z" fill="#37474F"/>
<path d="M206.42 211.728C213.79 211.728 219.765 205.754 219.765 198.384C219.765 191.014 213.79 185.04 206.42 185.04C199.051 185.04 193.076 191.014 193.076 198.384C193.076 205.754 199.051 211.728 206.42 211.728Z" fill="#1C7F8A"/>
<path d="M83.6412 211.728C91.011 211.728 96.9855 205.754 96.9855 198.384C96.9855 191.014 91.011 185.04 83.6412 185.04C76.2713 185.04 70.2969 191.014 70.2969 198.384C70.2969 205.754 76.2713 211.728 83.6412 211.728Z" fill="#1C7F8A"/>
<path d="M233.06 145.006H213.844C212.243 145.006 211.176 144.472 210.108 143.404L202.635 135.931C201.568 134.864 200.5 134.33 198.899 134.33H179.683C176.481 134.33 174.346 132.195 174.346 128.993V96.9666C174.346 93.764 176.481 91.6289 179.683 91.6289H209.041C210.642 91.6289 212.243 92.1627 213.311 93.764L237.33 122.587C237.864 123.655 238.398 124.722 238.398 125.79V139.668C238.398 142.87 236.263 145.006 233.06 145.006Z" fill="#1C7F8A"/>
<path d="M88.9784 64.9426C62.2901 64.9426 40.9395 86.2933 40.9395 112.982C40.9395 139.67 62.2901 161.021 88.9784 161.021C115.667 161.021 137.017 139.67 137.017 112.982C137.017 86.2933 115.667 64.9426 88.9784 64.9426ZM88.9784 118.319C85.7758 118.319 83.6408 116.184 83.6408 112.982C83.6408 109.779 85.7758 107.644 88.9784 107.644C92.181 107.644 94.3161 109.779 94.3161 112.982C94.3161 116.184 92.181 118.319 88.9784 118.319Z" fill="white"/>
<path d="M99.102 115.65C99.102 114.582 99.6358 114.048 99.6358 112.981C99.6358 109.244 97.5007 105.508 94.2981 103.907V75.6172H83.6228V103.907C80.4202 105.508 78.2852 109.244 78.2852 112.981C78.2852 118.852 83.0891 123.656 88.9605 123.656C90.028 123.656 90.5618 123.656 91.6293 123.122L103.906 135.399L111.379 127.926L99.102 115.65ZM88.9605 118.318C85.7579 118.318 83.6228 116.183 83.6228 112.981C83.6228 109.778 85.7579 107.643 88.9605 107.643C92.1631 107.643 94.2981 109.778 94.2981 112.981C94.2981 116.183 92.1631 118.318 88.9605 118.318Z" fill="#2C3E50"/>
</svg>
