<svg width="188" height="188" viewBox="0 0 188 188" fill="none" xmlns="http://www.w3.org/2000/svg">
<path d="M19.9326 94.566L99.0701 15.4285L157.61 15.4285C165.835 15.4285 172.573 22.1661 172.573 30.3909V88.9309L93.435 168.068C87.4311 174.072 78.0959 174.072 72.092 168.068L19.9326 115.909C13.9287 109.905 13.9287 100.57 19.9326 94.566ZM138.648 38.8721C138.648 44.6413 143.36 49.3533 149.129 49.3533C154.898 49.3533 159.61 44.6413 159.61 38.8721C159.61 33.1028 154.898 28.3909 149.129 28.3909C143.36 28.3909 138.648 33.1028 138.648 38.8721Z" fill="#5BC1CF" stroke="#2C3E50" stroke-width="4"/>
<path d="M95.1581 94.7409C97.8251 97.4202 101.311 99.1306 105.063 99.6002L113.444 108.017C113.995 108.57 114.743 108.882 115.524 108.883C116.305 108.885 117.055 108.576 117.608 108.025C118.161 107.474 118.473 106.726 118.475 105.945C118.476 105.164 118.168 104.415 117.617 103.861L112.643 98.8665C115.083 98.0532 117.307 96.6986 119.149 94.9041C120.991 93.1096 122.404 90.9218 123.281 88.5042C124.158 86.0867 124.477 83.502 124.214 80.9438C123.951 78.3855 123.113 75.9198 121.762 73.7312C120.412 71.5427 118.584 69.6879 116.415 68.3058C114.246 66.9236 111.793 66.0498 109.239 65.7498C106.684 65.4498 104.095 65.7314 101.665 66.5734C99.2354 67.4155 97.0273 68.7962 95.2064 70.6122C94.653 71.1633 94.3412 71.9115 94.3396 72.6925C94.338 73.4734 94.6466 74.2229 95.1977 74.7763C95.7487 75.3296 96.497 75.6414 97.2779 75.643C98.0588 75.6447 98.8084 75.336 99.3617 74.785C100.648 73.483 102.233 72.5162 103.98 71.9695C105.726 71.4228 107.58 71.3128 109.379 71.6491C111.178 71.9854 112.866 72.7578 114.297 73.8986C115.728 75.0393 116.858 76.5137 117.586 78.1923C118.315 79.871 118.621 81.7028 118.477 83.5271C118.333 85.3514 117.744 87.1126 116.761 88.6563C115.778 90.2 114.432 91.4791 112.84 92.3814C111.248 93.2838 109.459 93.7819 107.629 93.8321L84.3738 70.4793C83.8227 69.9259 83.0745 69.6141 82.2935 69.6125C81.5126 69.6109 80.763 69.9195 80.2097 70.4706C79.6564 71.0216 79.3446 71.7699 79.343 72.5508C79.3413 73.3317 79.65 74.0813 80.201 74.6346L90.4315 84.908C87.5117 83.9854 84.4211 83.7349 81.3908 84.175L76.0283 78.79C75.4772 78.2367 74.7289 77.9249 73.948 77.9233C73.1671 77.9216 72.4175 78.2303 71.8642 78.7813C71.3109 79.3324 70.9991 80.0806 70.9974 80.8616C70.9958 81.6425 71.3045 82.392 71.8555 82.9454L75.0551 86.1584C72.4455 87.4909 70.1554 89.3729 68.3425 91.6749C66.5296 93.9769 65.2369 96.6443 64.5533 99.4936C63.8697 102.343 63.8114 105.306 64.3825 108.18C64.9535 111.054 66.1404 113.771 67.8614 116.142C69.5823 118.514 71.7966 120.484 74.3519 121.918C76.9071 123.352 79.7427 124.216 82.6635 124.449C85.5844 124.683 88.5211 124.281 91.2718 123.271C94.0225 122.261 96.5218 120.668 98.5978 118.6C99.1511 118.049 99.4629 117.301 99.4645 116.52C99.4662 115.739 99.1575 114.989 98.6065 114.436C98.0554 113.883 97.3072 113.571 96.5262 113.569C95.7453 113.567 94.9957 113.876 94.4424 114.427C91.736 117.122 88.0698 118.632 84.2504 118.624C80.4309 118.616 76.7711 117.091 74.076 114.385C71.3809 111.678 69.8712 108.012 69.8792 104.193C69.8872 100.373 71.4121 96.7134 74.1185 94.0182C75.6557 92.5083 77.5153 91.3668 79.5575 90.6796L105.098 116.327C105.65 116.881 106.398 117.193 107.179 117.194C107.96 117.196 108.709 116.887 109.263 116.336C109.816 115.785 110.128 115.037 110.129 114.256C110.131 113.475 109.822 112.725 109.271 112.172L87.3891 90.1983C90.0765 90.7764 92.5398 92.1184 94.4828 94.0628L95.1581 94.7409Z" fill="#2C3E50"/>
</svg>
