<svg width="242" height="242" viewBox="0 0 242 242" fill="none" xmlns="http://www.w3.org/2000/svg">
<path d="M98.3104 157.413C92.0938 154.279 86.6453 149.812 82.3535 144.33L83.1854 143.688V113.438C83.1854 113.438 94.5291 109.656 120.998 109.656C147.467 109.656 158.81 113.438 158.81 113.438V143.688L159.642 144.33C155.35 149.812 149.902 154.279 143.685 157.413C136.608 160.823 128.854 162.594 120.998 162.594C113.142 162.594 105.388 160.823 98.3104 157.413Z" fill="#F5F5F5"/>
<path d="M94.5312 105.875C98.7079 105.875 102.094 100.796 102.094 94.5312C102.094 88.2663 98.7079 83.1875 94.5312 83.1875C90.3546 83.1875 86.9688 88.2663 86.9688 94.5312C86.9688 100.796 90.3546 105.875 94.5312 105.875Z" fill="#5E3616"/>
<path d="M147.469 105.875C151.645 105.875 155.031 100.796 155.031 94.5312C155.031 88.2663 151.645 83.1875 147.469 83.1875C143.292 83.1875 139.906 88.2663 139.906 94.5312C139.906 100.796 143.292 105.875 147.469 105.875Z" fill="#5E3616"/>
<path d="M136.087 45.4507C134.953 47.001 116.387 71.8438 90.75 71.8438V49.1563L68.0625 68.0626V86.9688H60.5C58.4961 86.9748 56.5761 87.7735 55.1591 89.1904C53.7422 90.6074 52.9435 92.5275 52.9375 94.5313V98.3126C53.0341 102.369 54.3374 106.306 56.6809 109.619C55.5466 109.165 37.8125 101.489 37.8125 83.1876C38.0266 77.3576 39.4873 71.6412 42.0963 66.4232C44.7053 61.2053 48.402 56.6068 52.9375 52.9376C46.6028 53.0704 40.3668 51.3525 34.9938 47.9944C29.6208 44.6362 25.344 39.7837 22.6875 34.0313C22.6875 34.0313 52.9375 30.2501 68.0625 22.6876C83.1875 15.1251 90.75 3.78133 121 3.78133C128.375 3.55577 135.691 5.16516 142.291 8.46504C148.891 11.7649 154.568 16.652 158.812 22.6876C160.408 20.1709 162.659 18.1368 165.324 16.8042C167.989 15.4717 170.967 14.8911 173.938 15.1251C185.281 15.1251 204.188 22.6876 204.188 45.3751V77.8938C204.188 81.332 203.014 84.6673 200.86 87.347L189.062 102.094L188.647 102.132C188.918 100.877 189.057 99.5966 189.062 98.3126V94.5313C189.057 92.5275 188.258 90.6074 186.841 89.1904C185.424 87.7735 183.504 86.9748 181.5 86.9688H173.938V71.8438C155.031 71.8438 155.031 41.5938 155.031 41.5938C155.031 41.5938 143.688 60.5001 132.344 60.5001L136.087 45.4507Z" fill="#5E3616"/>
<path d="M181.5 86.9688H173.938V71.8438C155.031 71.8438 155.031 41.5938 155.031 41.5938C155.031 41.5938 143.688 60.5 132.344 60.5L136.087 45.4506C134.953 47.0009 116.387 71.8438 90.75 71.8438V49.1562L68.0625 68.0625V86.9688H60.5C58.4961 86.9747 56.5761 87.7734 55.1591 89.1904C53.7422 90.6073 52.9435 92.5274 52.9375 94.5312V98.3125C53.0341 102.369 54.3374 106.306 56.6809 109.618L56.7188 109.656C60.3664 115.007 65.6858 118.996 71.8438 121C73.4526 129.499 77.0552 137.495 82.3556 144.33L83.1875 143.688V113.438C83.1875 113.438 94.5312 109.656 121 109.656C147.469 109.656 158.812 113.438 158.812 113.438V143.688L159.644 144.33C164.945 137.495 168.547 129.499 170.156 121C174.552 119.618 178.539 117.173 181.764 113.881C184.99 110.59 187.353 106.554 188.647 102.132C188.918 100.876 189.057 99.5965 189.062 98.3125V94.5312C189.057 92.5274 188.258 90.6073 186.841 89.1904C185.424 87.7734 183.504 86.9747 181.5 86.9688ZM94.5312 105.875C90.3719 105.875 86.9688 100.808 86.9688 94.5312C86.9688 88.2544 90.3719 83.1875 94.5312 83.1875C98.6906 83.1875 102.094 88.2544 102.094 94.5312C102.094 100.808 98.6906 105.875 94.5312 105.875ZM147.469 105.875C143.309 105.875 139.906 100.808 139.906 94.5312C139.906 88.2544 143.309 83.1875 147.469 83.1875C151.628 83.1875 155.031 88.2544 155.031 94.5312C155.031 100.808 151.628 105.875 147.469 105.875Z" fill="#F2C4B2"/>
<path d="M143.688 175.526C143.687 176.792 144.005 178.037 144.613 179.148C145.221 180.258 146.099 181.197 147.166 181.878C145.692 183.844 137.827 192.844 121 192.844C104.174 192.844 96.3087 183.844 94.834 181.878C95.9012 181.197 96.7794 180.258 97.3875 179.148C97.9955 178.037 98.3137 176.792 98.3127 175.526V157.413C105.39 160.823 113.145 162.594 121 162.594C128.856 162.594 136.611 160.823 143.688 157.413V175.526Z" fill="#F2B59D"/>
<path d="M223.094 218.33V234.438H18.9062V218.33C18.9102 213.226 20.6319 208.272 23.7941 204.267C26.9562 200.261 31.3747 197.436 36.3378 196.247L92.4894 182.899C93.3227 182.693 94.1153 182.348 94.8337 181.878C96.3084 183.845 104.173 192.844 121 192.844C137.827 192.844 145.692 183.845 147.166 181.878C147.885 182.348 148.677 182.693 149.511 182.899L205.662 196.247C210.625 197.436 215.044 200.261 218.206 204.267C221.368 208.272 223.09 213.226 223.094 218.33Z" fill="#5BC1CF"/>
<path d="M56.7188 225.763C56.716 223.896 57.3162 222.077 58.4301 220.579C59.5441 219.08 61.1122 217.981 62.9011 217.445L165.46 186.677L149.511 182.895C148.677 182.689 147.885 182.344 147.166 181.874C145.692 183.841 137.827 192.84 121 192.84C104.173 192.84 96.3084 183.841 94.8338 181.874C94.1154 182.344 93.3227 182.689 92.4894 182.895L36.3378 196.247C31.3747 197.436 26.9562 200.261 23.7941 204.266C20.6319 208.272 18.9102 213.226 18.9062 218.329V234.438H65.3929C63.0924 234.438 60.8861 233.524 59.2594 231.897C57.6326 230.27 56.7188 228.064 56.7188 225.763Z" fill="#14A0B4"/>
<path d="M143.688 157.413C136.611 160.823 128.856 162.594 121 162.594C113.145 162.594 105.39 160.823 98.3127 157.413V175.526C98.3137 176.792 97.9955 178.037 97.3875 179.148C96.7794 180.258 95.9012 181.197 94.834 181.878C97.1871 184.723 100.101 187.053 103.395 188.722L143.688 163.539V157.413Z" fill="#ED9776"/>
<path d="M149.509 182.899C148.472 182.643 147.501 182.174 146.655 181.523C145.809 180.873 145.107 180.053 144.593 179.118C144.521 179.201 144.427 179.258 144.362 179.348C144.298 179.439 144.207 179.53 144.135 179.624C143.409 180.592 136.603 189.078 120.994 189.078C105.385 189.078 98.5788 180.592 97.8528 179.624C97.781 179.53 97.7054 179.439 97.626 179.348C97.5466 179.258 97.4672 179.201 97.3953 179.118C96.8816 180.053 96.1797 180.873 95.3336 181.523C94.4876 182.174 93.5158 182.643 92.4797 182.899L91.1562 183.213C91.3626 183.626 91.6261 184.008 91.939 184.347C93.8523 186.794 102.629 196.625 120.998 196.625C139.367 196.625 148.143 186.794 150.049 184.336C150.362 183.996 150.626 183.615 150.832 183.202L149.509 182.899Z" fill="#E3E3E3"/>
<path d="M68.0625 94.5312H64.2812C63.2784 94.5312 62.3166 94.9296 61.6075 95.6387C60.8984 96.3479 60.5 97.3097 60.5 98.3125V102.094C60.5 106.272 63.8842 113.438 68.0625 113.438V94.5312Z" fill="#F2A283"/>
<path d="M173.938 94.5312H177.719C178.722 94.5312 179.683 94.9296 180.393 95.6387C181.102 96.3479 181.5 97.3097 181.5 98.3125V102.094C181.5 106.272 178.097 113.438 173.938 113.438V94.5312Z" fill="#F2A283"/>
<path d="M52.9375 52.9375C48.402 56.6068 44.7053 61.2052 42.0963 66.4232C39.4873 71.6411 38.0266 77.3575 37.8125 83.1875C37.8125 101.489 55.5466 109.165 56.6809 109.618C54.3374 106.306 53.0341 102.369 52.9375 98.3125V94.5312C52.9435 92.5274 53.7422 90.6073 55.1591 89.1904C56.5761 87.7734 58.4961 86.9747 60.5 86.9688H68.0625V68.0625L45.375 75.625C44.9826 67.3846 47.6794 59.2944 52.9375 52.9375Z" fill="#3B220E"/>
<path d="M173.938 71.8438V86.9688H181.5C183.504 86.9747 185.424 87.7734 186.841 89.1904C188.258 90.6073 189.057 92.5274 189.062 94.5312V79.4062L173.938 71.8438Z" fill="#3B220E"/>
<path d="M90.75 49.1562L68.0625 68.0625V71.8438V75.625L90.75 56.7188V49.1562Z" fill="#D9896D"/>
<path d="M155.031 49.1562C155.031 49.1562 155.031 79.4062 173.938 79.4062V71.8438C155.031 71.8438 155.031 41.5938 155.031 41.5938C155.031 41.5938 144.939 58.3976 134.272 60.3072L132.344 68.0625C143.688 68.0625 155.031 49.1562 155.031 49.1562Z" fill="#D9896D"/>
<path d="M133.368 56.3785L136.087 45.4507C134.953 47.001 116.387 71.8438 90.75 71.8438V79.4063C111.259 79.4063 127.216 63.5251 133.368 56.3785Z" fill="#D9896D"/>
<path d="M124.781 109.69V109.656C124.781 105.478 123.087 102.094 121 102.094C118.913 102.094 117.219 105.478 117.219 109.656V109.69C118.455 109.69 119.695 109.656 121 109.656C122.305 109.656 123.545 109.656 124.781 109.69Z" fill="#D9896D"/>
<path d="M120.998 155.031C118.272 155.053 115.551 154.78 112.883 154.218C108.72 153.267 105.006 150.922 102.356 147.573C99.7061 144.224 98.2788 140.07 98.3104 135.8V110.76C93.196 111.177 88.132 112.073 83.1854 113.437V143.687L82.3535 144.33C86.6453 149.812 92.0938 154.279 98.3104 157.413C105.388 160.823 113.142 162.593 120.998 162.593C128.854 162.593 136.608 160.823 143.685 157.413C149.902 154.279 155.35 149.812 159.642 144.33L158.81 143.687C158.81 143.687 139.904 155.031 120.998 155.031Z" fill="#D4D4D4"/>
<path d="M94.5348 130.453C94.0866 130.452 93.6533 130.292 93.3123 130.001C92.9712 129.71 92.7446 129.308 92.6728 128.865C92.6011 128.423 92.6888 127.969 92.9204 127.586C93.152 127.202 93.5124 126.913 93.9373 126.77C111.611 121.597 130.396 121.597 148.07 126.77C148.305 126.849 148.523 126.973 148.711 127.135C148.899 127.298 149.052 127.496 149.163 127.718C149.275 127.94 149.341 128.182 149.359 128.43C149.376 128.677 149.345 128.926 149.266 129.162C149.188 129.397 149.064 129.615 148.901 129.803C148.739 129.991 148.541 130.144 148.319 130.256C148.096 130.367 147.855 130.433 147.607 130.451C147.359 130.468 147.11 130.437 146.875 130.359C129.977 125.445 112.03 125.445 95.1322 130.359C94.9397 130.423 94.7378 130.455 94.5348 130.453Z" fill="#D4D4D4"/>
<path d="M94.5348 145.578C94.0866 145.577 93.6533 145.417 93.3123 145.126C92.9712 144.835 92.7446 144.433 92.6728 143.99C92.6011 143.548 92.6888 143.094 92.9204 142.711C93.152 142.327 93.5124 142.038 93.9373 141.895C111.611 136.722 130.396 136.722 148.07 141.895C148.305 141.974 148.523 142.098 148.711 142.26C148.899 142.423 149.052 142.621 149.163 142.843C149.275 143.065 149.341 143.307 149.359 143.555C149.376 143.802 149.345 144.051 149.266 144.287C149.188 144.522 149.064 144.74 148.901 144.928C148.739 145.116 148.541 145.269 148.319 145.381C148.096 145.492 147.855 145.558 147.607 145.576C147.359 145.593 147.11 145.562 146.875 145.484C129.977 140.57 112.03 140.57 95.1322 145.484C94.9397 145.548 94.7378 145.58 94.5348 145.578Z" fill="#D4D4D4"/>
<path d="M174.877 85.3276C174.661 85.204 174.423 85.124 174.176 85.0925C173.93 85.0609 173.679 85.0783 173.439 85.1436C173.199 85.2089 172.975 85.3209 172.778 85.4732C172.582 85.6254 172.417 85.815 172.294 86.0309L157.925 111.214C145.803 108.569 133.404 107.411 121.001 107.766C108.605 107.413 96.2124 108.571 84.0963 111.214L69.7275 86.0309C69.4768 85.5947 69.0631 85.2759 68.5773 85.1447C68.0916 85.0135 67.5736 85.0807 67.1374 85.3314C66.7011 85.5821 66.3824 85.9959 66.2512 86.4816C66.12 86.9674 66.1871 87.4853 66.4378 87.9216L81.2982 113.944V143.687C81.2982 144.189 81.4973 144.67 81.8519 145.024C82.2065 145.379 82.6874 145.578 83.1888 145.578C83.2642 145.569 83.3388 145.554 83.4119 145.533C83.0678 145.124 82.6897 144.75 82.3569 144.33L83.1888 143.687V113.437C83.1888 113.437 94.5325 109.656 121.001 109.656C147.47 109.656 158.814 113.437 158.814 113.437V143.687L159.646 144.33C159.313 144.75 158.935 145.124 158.591 145.533C158.664 145.554 158.738 145.569 158.814 145.578C159.315 145.578 159.796 145.379 160.151 145.024C160.505 144.67 160.704 144.189 160.704 143.687V113.944L175.584 87.9064C175.707 87.6907 175.786 87.4528 175.817 87.2065C175.848 86.9601 175.83 86.71 175.764 86.4706C175.699 86.2311 175.586 86.0069 175.434 85.8108C175.282 85.6147 175.092 85.4505 174.877 85.3276Z" fill="#BFBFBF"/>
<path d="M87.3244 81.225C87.245 81.2477 87.1694 81.2666 87.09 81.2818C85.9556 81.4859 85.0859 79.6823 85.0859 78.4609C85.0859 78.1168 85.2145 69.9531 96.4297 69.9531C107.645 69.9531 107.773 78.1168 107.773 78.4609C107.791 78.9589 107.683 79.4533 107.461 79.8991C107.238 80.3448 106.908 80.7279 106.499 81.0133C105.671 81.5162 104.873 81.0473 104.23 80.257C103.917 79.8789 103.675 79.3949 103.338 79.0319C103.007 78.7021 102.624 78.4299 102.204 78.2265C101.212 77.6449 100.163 77.1672 99.0728 76.801C97.6244 76.3844 96.0949 76.336 94.6231 76.6602C93.1512 76.9844 91.7837 77.6709 90.6444 78.6576C89.6968 79.7014 88.573 80.5704 87.3244 81.225Z" fill="#3B220E"/>
<path d="M154.685 81.225C154.765 81.2477 154.84 81.2666 154.92 81.2818C156.054 81.4859 156.924 79.6823 156.924 78.4609C156.924 78.1168 156.795 69.9531 145.58 69.9531C134.365 69.9531 134.236 78.1168 134.236 78.4609C134.219 78.9589 134.326 79.4533 134.549 79.8991C134.772 80.3448 135.102 80.7279 135.51 81.0133C136.335 81.5162 137.136 81.0473 137.779 80.257C138.093 79.8789 138.335 79.3949 138.668 79.0319C138.999 78.7029 139.382 78.4308 139.802 78.2265C140.796 77.6456 141.846 77.1679 142.937 76.801C144.385 76.3844 145.915 76.336 147.387 76.6602C148.858 76.9844 150.226 77.6709 151.365 78.6576C152.312 79.7022 153.436 80.5714 154.685 81.225Z" fill="#3B220E"/>
</svg>
