<svg width="186" height="204" viewBox="0 0 186 204" fill="none" xmlns="http://www.w3.org/2000/svg">
<path d="M146.872 83.9475C148.032 84.5275 149.337 84.89 150.569 84.89C151.874 84.89 153.107 84.6 154.267 83.9475C155.572 83.2225 185.949 67.2 185.949 35.88C185.949 16.3775 170.072 0.5 150.569 0.5C131.067 0.5 115.189 16.3775 115.189 35.88C115.189 67.2 145.567 83.2225 146.872 83.9475ZM149.844 21.525H150.787C159.124 21.525 165.867 28.2675 165.867 36.605C165.867 44.87 159.124 51.685 150.787 51.685C142.449 51.685 135.272 44.87 135.272 36.605C135.272 28.195 141.507 21.525 149.844 21.525Z" fill="#5BC1CF"/>
<path d="M153.318 123.677H32.6777C23.5427 123.677 16.0752 116.21 16.0752 107.075V103.812C16.0752 94.6774 23.5427 87.2099 32.6777 87.2099H102.785C107.208 87.2099 110.833 83.5849 110.833 79.1624C110.833 74.7399 107.28 71.1149 102.785 71.1149H32.6777C14.6977 71.1149 0.0527344 85.7599 0.0527344 103.74V107.002C0.0527344 124.982 14.6977 139.627 32.6777 139.627H153.245C162.38 139.627 169.848 147.095 169.848 156.23C169.848 165.365 162.38 172.832 153.245 172.832H76.6127C72.1902 172.832 68.5652 176.457 68.5652 180.88C68.5652 185.302 72.1177 188.927 76.6127 188.927H153.318C171.298 188.927 185.943 174.282 185.943 156.302C185.943 138.322 171.298 123.677 153.318 123.677Z" fill="#1C7F8A"/>
<path d="M54.1355 164.64C51.018 161.523 45.943 161.523 42.8255 164.64L35.938 171.6L29.0505 164.713C25.933 161.595 20.858 161.595 17.7405 164.713C14.623 167.83 14.623 172.905 17.7405 176.023L24.628 182.91L17.7405 189.798C14.623 192.915 14.623 197.99 17.7405 201.108C19.263 202.703 21.293 203.5 23.323 203.5C25.353 203.5 27.4555 202.703 28.978 201.18L35.8655 194.293L42.753 201.18C44.4205 202.703 46.4505 203.5 48.4805 203.5C50.5105 203.5 52.613 202.703 54.1355 201.18C57.253 198.063 57.253 192.988 54.1355 189.87L47.248 182.983L54.1355 176.095C57.3255 172.833 57.3255 167.83 54.1355 164.64Z" fill="#37474F"/>
</svg>
