<svg width="269" height="269" viewBox="0 0 269 269" fill="none" xmlns="http://www.w3.org/2000/svg">
<path d="M116.982 263.222C178.399 263.222 228.187 213.434 228.187 152.017C228.187 90.6007 178.399 40.8127 116.982 40.8127C55.5653 40.8127 5.77734 90.6007 5.77734 152.017C5.77734 213.434 55.5653 263.222 116.982 263.222Z" fill="#5BC1CF"/>
<path d="M195.617 73.3832C199.617 77.3818 203.309 81.6765 206.662 86.2306L216.626 76.2669C218.195 74.6985 219.441 72.8362 220.29 70.7864C221.14 68.7366 221.577 66.5395 221.577 64.3206C221.577 62.1017 221.14 59.9046 220.29 57.8548C219.441 55.8049 218.195 53.9426 216.626 52.3743C215.058 50.8047 213.195 49.5595 211.145 48.71C209.096 47.8604 206.898 47.4232 204.68 47.4232C202.461 47.4232 200.264 47.8604 198.214 48.71C196.164 49.5595 194.302 50.8047 192.733 52.3743L182.77 62.338C187.324 65.6914 191.618 69.3836 195.617 73.3832Z" fill="#95A5A6"/>
<path opacity="0.15" d="M216.625 52.3743C214.884 50.6441 212.782 49.3196 210.47 48.4953C210.654 50.9012 210.316 53.3183 209.48 55.5818C208.645 57.8454 207.331 59.9021 205.628 61.6117L195.67 71.554L194.594 72.3771C194.927 72.7053 195.266 73.0281 195.594 73.3617C199.594 77.3603 203.286 81.6549 206.64 86.2091L216.603 76.2453C219.77 73.0816 221.55 68.7903 221.554 64.3143C221.558 59.8383 219.785 55.5437 216.625 52.3743Z" fill="#ECF0F1"/>
<path d="M218.43 74.0988C225.869 76.3069 233.832 75.972 241.06 73.147C248.287 70.322 254.366 65.1681 258.336 58.5006C262.306 51.833 263.94 44.0323 262.979 36.3322C262.018 28.632 258.518 21.4719 253.031 15.9842C247.545 10.4965 240.386 6.99444 232.686 6.03193C224.986 5.06942 217.185 6.70136 210.516 10.6697C203.848 14.638 198.692 20.7161 195.866 27.9429C193.039 35.1696 192.702 43.1324 194.909 50.572" stroke="black" stroke-width="10.76" stroke-linecap="round" stroke-linejoin="round"/>
<path d="M116.983 234.563C162.571 234.563 199.528 197.606 199.528 152.017C199.528 106.429 162.571 69.4719 116.983 69.4719C71.3943 69.4719 34.4375 106.429 34.4375 152.017C34.4375 197.606 71.3943 234.563 116.983 234.563Z" fill="#E3E3E3"/>
<path opacity="0.15" d="M195.615 73.3832C185.322 63.066 173.092 54.8826 159.629 49.3023C194.878 92.9718 192.226 157.096 151.645 197.677C118.859 230.468 70.6918 238.479 30.3633 221.758C32.8649 224.862 35.53 227.831 38.3472 230.651C81.7746 274.084 152.188 274.084 195.615 230.651C239.043 187.219 239.043 116.811 195.615 73.3832Z" fill="#5BC1CF"/>
<path d="M116.982 104.189L95.3809 152.017H116.982H138.582L116.982 104.189Z" fill="white"/>
<path d="M116.982 199.845L95.3809 152.017H116.982H138.582L116.982 199.845Z" fill="#EE3734"/>
<path d="M175.352 93.6496L163.016 105.986" stroke="#2F2F31" stroke-width="10.9913" stroke-linecap="round" stroke-linejoin="round"/>
<path d="M175.352 93.6496L163.016 105.986" stroke="black" stroke-width="10.76" stroke-linecap="round" stroke-linejoin="round"/>
<path d="M58.6113 210.39L70.953 198.049" stroke="black" stroke-width="10.76" stroke-linecap="round" stroke-linejoin="round"/>
<path d="M175.352 210.39L163.016 198.049" stroke="black" stroke-width="10.76" stroke-linecap="round" stroke-linejoin="round"/>
<path d="M58.6113 93.6496L70.953 105.986" stroke="black" stroke-width="10.76" stroke-linecap="round" stroke-linejoin="round"/>
<path d="M116.982 234.568V217.115" stroke="black" stroke-width="10.76" stroke-linecap="round" stroke-linejoin="round"/>
<path d="M116.982 69.4719V86.9193" stroke="black" stroke-width="10.76" stroke-linecap="round" stroke-linejoin="round"/>
<path d="M34.4316 152.017H51.8844" stroke="black" stroke-width="10.76" stroke-linecap="round" stroke-linejoin="round"/>
<path d="M199.529 152.017H182.082" stroke="black" stroke-width="10.76" stroke-linecap="round" stroke-linejoin="round"/>
<path d="M116.982 263.222C178.399 263.222 228.187 213.434 228.187 152.017C228.187 90.6007 178.399 40.8127 116.982 40.8127C55.5653 40.8127 5.77734 90.6007 5.77734 152.017C5.77734 213.434 55.5653 263.222 116.982 263.222Z" stroke="black" stroke-width="10.76" stroke-linecap="round" stroke-linejoin="round"/>
<path d="M195.617 73.3832C199.617 77.3818 203.309 81.6765 206.662 86.2306L216.626 76.2669C218.195 74.6985 219.441 72.8362 220.29 70.7864C221.14 68.7366 221.577 66.5395 221.577 64.3206C221.577 62.1017 221.14 59.9046 220.29 57.8548C219.441 55.8049 218.195 53.9426 216.626 52.3743V52.3743C215.058 50.8047 213.195 49.5595 211.145 48.71C209.096 47.8604 206.898 47.4232 204.68 47.4232C202.461 47.4232 200.264 47.8604 198.214 48.71C196.164 49.5595 194.302 50.8047 192.733 52.3743L182.77 62.338C187.324 65.6914 191.618 69.3836 195.617 73.3832Z" stroke="black" stroke-width="10.76" stroke-linecap="round" stroke-linejoin="round"/>
<path d="M116.983 234.563C162.571 234.563 199.528 197.606 199.528 152.017C199.528 106.429 162.571 69.4719 116.983 69.4719C71.3943 69.4719 34.4375 106.429 34.4375 152.017C34.4375 197.606 71.3943 234.563 116.983 234.563Z" stroke="black" stroke-width="10.76" stroke-linecap="round" stroke-linejoin="round"/>
<path d="M116.982 104.189L95.3809 152.017H116.982H138.582L116.982 104.189Z" stroke="black" stroke-width="10.76" stroke-linecap="round" stroke-linejoin="round"/>
<path d="M116.982 199.845L95.3809 152.017H116.982H138.582L116.982 199.845Z" stroke="black" stroke-width="10.76" stroke-linecap="round" stroke-linejoin="round"/>
</svg>
