<svg width="256" height="256" viewBox="0 0 256 256" fill="none" xmlns="http://www.w3.org/2000/svg">
<path d="M51.8724 152.272L34.2724 66.6724C32.6724 57.8724 38.2724 49.4724 47.0724 47.8724L204.272 18.2724C213.072 16.6724 221.472 22.2724 223.072 31.0724L237.072 105.872C237.872 110.272 233.872 119.072 231.872 122.272C231.872 122.272 230.672 124.672 228.672 124.672C226.672 124.672 57.8724 155.072 57.8724 155.072L51.8724 152.272Z" fill="#5BC1CF"/>
<path d="M54 95.2004C37.6 95.2004 24 99.2004 24 104V200C24 204.8 37.2 208.8 54 208.8C70.8 208.8 84 204.8 84 200V104C83.6 99.2004 70.4 95.2004 54 95.2004Z" fill="#F8B319"/>
<path d="M54 112.8C70.5685 112.8 84 108.861 84 104C84 99.1403 70.5685 95.2004 54 95.2004C37.4315 95.2004 24 99.1403 24 104C24 108.861 37.4315 112.8 54 112.8Z" stroke="#2C3E50" stroke-width="8" stroke-miterlimit="10" stroke-linecap="round" stroke-linejoin="round"/>
<path d="M83.6 120C83.6 124.8 70.4 128.8 53.6 128.8C36.8 128.8 24 124.8 24 120" stroke="#2C3E50" stroke-width="8" stroke-miterlimit="10" stroke-linecap="round" stroke-linejoin="round"/>
<path d="M83.6 136C83.6 140.8 70.4 144.8 53.6 144.8C36.8 144.8 24 140.8 24 136" stroke="#2C3E50" stroke-width="8" stroke-miterlimit="10" stroke-linecap="round" stroke-linejoin="round"/>
<path d="M83.6 152C83.6 156.8 70.4 160.8 53.6 160.8C36.8 160.8 24 156.8 24 152" stroke="#2C3E50" stroke-width="8" stroke-miterlimit="10" stroke-linecap="round" stroke-linejoin="round"/>
<path d="M83.6 168C83.6 172.8 70.4 176.8 53.6 176.8C36.8 176.8 24 172.8 24 168" stroke="#2C3E50" stroke-width="8" stroke-miterlimit="10" stroke-linecap="round" stroke-linejoin="round"/>
<path d="M83.6 184C83.6 188.8 70.4 192.8 53.6 192.8C36.8 192.8 24 188.8 24 184" stroke="#2C3E50" stroke-width="8" stroke-miterlimit="10" stroke-linecap="round" stroke-linejoin="round"/>
<path d="M83.6 104V200C83.6 204.8 70.4 208.8 53.6 208.8C36.8 208.8 24 204.8 24 200V104" stroke="#2C3E50" stroke-width="8" stroke-miterlimit="10" stroke-linecap="round" stroke-linejoin="round"/>
<path d="M206.797 127.2C191.997 127.2 176.797 131.2 176.797 136V232C176.797 236.8 189.997 240.8 206.797 240.8C223.197 240.8 236.797 236.8 236.797 232V136C236.397 129.6 221.197 126.8 206.797 127.2Z" fill="#F8B319"/>
<path d="M236.797 136C237.197 140.8 223.597 144.8 206.797 144.8C189.997 144.8 176.797 140.8 176.797 136C176.797 131.2 191.597 127.2 206.797 127.2C221.197 126.8 236.397 129.6 236.797 136Z" stroke="#2C3E50" stroke-width="8" stroke-miterlimit="10" stroke-linecap="round" stroke-linejoin="round"/>
<path d="M236.797 152C236.797 156.8 223.597 160.8 206.797 160.8C189.997 160.8 176.797 156.8 176.797 152" stroke="#2C3E50" stroke-width="8" stroke-miterlimit="10" stroke-linecap="round" stroke-linejoin="round"/>
<path d="M236.797 168C236.797 172.8 223.597 176.8 206.797 176.8C189.997 176.8 176.797 172.8 176.797 168" stroke="#2C3E50" stroke-width="8" stroke-miterlimit="10" stroke-linecap="round" stroke-linejoin="round"/>
<path d="M236.797 184C236.797 188.8 223.597 192.8 206.797 192.8C189.997 192.8 176.797 188.8 176.797 184" stroke="#2C3E50" stroke-width="8" stroke-miterlimit="10" stroke-linecap="round" stroke-linejoin="round"/>
<path d="M236.797 200C236.797 204.8 223.597 208.8 206.797 208.8C189.997 208.8 176.797 204.8 176.797 200" stroke="#2C3E50" stroke-width="8" stroke-miterlimit="10" stroke-linecap="round" stroke-linejoin="round"/>
<path d="M236.797 216C236.797 220.8 223.597 224.8 206.797 224.8C189.997 224.8 176.797 220.8 176.797 216" stroke="#2C3E50" stroke-width="8" stroke-miterlimit="10" stroke-linecap="round" stroke-linejoin="round"/>
<path d="M236.797 136V232C236.797 236.8 223.597 240.8 206.797 240.8C189.997 240.8 176.797 236.8 176.797 232V136" stroke="#2C3E50" stroke-width="8" stroke-miterlimit="10" stroke-linecap="round" stroke-linejoin="round"/>
<path d="M128 163.6C111.6 163.6 98 167.6 98 172.4V236.4C98 241.2 111.2 245.2 128 245.2C144.8 245.2 158 241.2 158 236.4V172.4C158 167.6 144.4 163.6 128 163.6Z" fill="#FFD766"/>
<path d="M128 181.2C144.569 181.2 158 177.26 158 172.4C158 167.539 144.569 163.6 128 163.6C111.431 163.6 98 167.539 98 172.4C98 177.26 111.431 181.2 128 181.2Z" stroke="#2C3E50" stroke-width="8" stroke-miterlimit="10" stroke-linecap="round" stroke-linejoin="round"/>
<path d="M158 188.4C158 193.2 144.8 197.2 128 197.2C111.2 197.2 98 193.2 98 188.4" stroke="#2C3E50" stroke-width="8" stroke-miterlimit="10" stroke-linecap="round" stroke-linejoin="round"/>
<path d="M158 204.4C158 209.2 144.8 213.2 128 213.2C111.2 213.2 98 209.2 98 204.4" stroke="#2C3E50" stroke-width="8" stroke-miterlimit="10" stroke-linecap="round" stroke-linejoin="round"/>
<path d="M158 220.4C158 225.2 144.8 229.2 128 229.2C111.2 229.2 98 225.2 98 220.4" stroke="#2C3E50" stroke-width="8" stroke-miterlimit="10" stroke-linecap="round" stroke-linejoin="round"/>
<path d="M158 172.4V236.8V236.4C158 241.2 144.8 245.2 128 245.2C111.2 245.2 98 241.2 98 236.4V236.8V172.4" stroke="#2C3E50" stroke-width="8" stroke-miterlimit="10" stroke-linecap="round" stroke-linejoin="round"/>
<path d="M34.4037 86L30.8037 66.4C29.2037 57.6 34.8037 49.2 43.6037 47.6L200.804 18C209.604 16.4 218.004 22 219.604 30.8L233.604 105.6C234.404 110 233.204 114.4 231.204 117.6" stroke="#2C3E50" stroke-width="8" stroke-miterlimit="10" stroke-linecap="round" stroke-linejoin="round"/>
<path d="M163.996 134.8L96.3965 147.6" stroke="#2C3E50" stroke-width="8" stroke-miterlimit="10" stroke-linecap="round" stroke-linejoin="round"/>
<path d="M133.288 84.6823C137.206 83.7376 140.695 81.5099 143.201 78.3536L155.511 75.3829C156.32 75.1876 157.018 74.6788 157.453 73.9685C157.887 73.2582 158.021 72.4044 157.826 71.5952C157.63 70.7859 157.121 70.0874 156.411 69.6532C155.701 69.2191 154.847 69.0849 154.038 69.2802L146.733 71.0432C147.344 68.3705 147.342 65.5942 146.729 62.9221C146.115 60.25 144.905 57.7513 143.189 55.613C141.473 53.4747 139.296 51.7522 136.82 50.5743C134.344 49.3965 131.634 48.7938 128.892 48.8114C126.151 48.829 123.449 49.4664 120.988 50.6759C118.528 51.8854 116.373 53.6357 114.685 55.7959C112.996 57.956 111.818 60.47 111.239 63.1497C110.659 65.8295 110.694 68.6055 111.339 71.2702C111.534 72.0795 112.043 72.778 112.753 73.2122C113.464 73.6463 114.317 73.7805 115.127 73.5852C115.936 73.3899 116.634 72.8811 117.068 72.1707C117.503 71.4604 117.637 70.6067 117.441 69.7974C116.968 67.9048 116.966 65.925 117.436 64.0315C117.905 62.138 118.832 60.3886 120.135 58.9366C121.438 57.4846 123.077 56.3743 124.909 55.7031C126.741 55.0319 128.709 54.8202 130.642 55.0866C132.574 55.353 134.412 56.0893 135.994 57.2311C137.576 58.3729 138.854 59.8852 139.715 61.6356C140.577 63.3859 140.996 65.3209 140.935 67.2708C140.875 69.2208 140.338 71.1262 139.37 72.8201L105.216 81.0627C104.407 81.2581 103.708 81.7668 103.274 82.4772C102.84 83.1875 102.706 84.0412 102.901 84.8505C103.096 85.6598 103.605 86.3583 104.316 86.7925C105.026 87.2266 105.88 87.3608 106.689 87.1655L121.714 83.5394C119.256 85.6877 117.315 88.3637 116.037 91.3675L108.162 93.2682C107.352 93.4635 106.654 93.9723 106.22 94.6826C105.786 95.393 105.651 96.2467 105.847 97.056C106.042 97.8652 106.551 98.5638 107.261 98.9979C107.971 99.4321 108.825 99.5662 109.634 99.3709L114.334 98.2369C114.101 101.352 114.547 104.48 115.639 107.407C116.731 110.333 118.444 112.989 120.661 115.19C122.877 117.391 125.544 119.086 128.478 120.158C131.412 121.231 134.543 121.654 137.657 121.401C140.77 121.147 143.792 120.222 146.514 118.69C149.235 117.157 151.593 115.053 153.424 112.522C155.255 109.991 156.516 107.093 157.12 104.029C157.724 100.964 157.658 97.8047 156.924 94.7682C156.729 93.959 156.22 93.2604 155.51 92.8263C154.8 92.3921 153.946 92.258 153.137 92.4533C152.327 92.6486 151.629 93.1574 151.195 93.8677C150.761 94.5781 150.626 95.4318 150.822 96.241C151.777 100.199 151.121 104.375 148.997 107.849C146.874 111.323 143.457 113.812 139.499 114.767C135.541 115.722 131.366 115.066 127.891 112.943C124.417 110.819 121.929 107.403 120.973 103.445C120.45 101.208 120.44 98.8818 120.946 96.6411L158.456 87.5884C159.266 87.3931 159.964 86.8843 160.398 86.1739C160.832 85.4636 160.967 84.6099 160.771 83.8006C160.576 82.9913 160.067 82.2928 159.357 81.8587C158.646 81.4245 157.793 81.2904 156.983 81.4857L124.847 89.2415C126.862 87.1141 129.449 85.6141 132.296 84.9217L133.288 84.6823Z" fill="#2C3E50"/>
</svg>
