<svg width="163" height="171" viewBox="0 0 163 171" fill="none" xmlns="http://www.w3.org/2000/svg">
<path d="M18.2083 27.125C8.22091 27.125 0.125 35.2625 0.125 45.2083V171.792C0.125 181.738 8.22091 189.875 18.2083 189.875H72.4583H90.5417H144.792C154.783 189.875 162.875 181.738 162.875 171.792V45.2083C162.875 35.2625 154.783 27.125 144.792 27.125H90.5417H72.4583H18.2083Z" fill="#BDC3C7"/>
<path d="M18.2083 18.0833C8.22091 18.0833 0.125 26.1792 0.125 36.1666V162.75C0.125 172.741 8.22091 180.833 18.2083 180.833H72.4583H90.5417H144.792C154.783 180.833 162.875 172.741 162.875 162.75V36.1666C162.875 26.1792 154.783 18.0833 144.792 18.0833H90.5417H72.4583H18.2083Z" fill="#ECF0F1"/>
<path d="M18.2083 18.0833C8.22091 18.0833 0.125 26.2208 0.125 36.1666V63.2916H162.875V36.1666C162.875 26.2208 154.783 18.0833 144.792 18.0833H90.5417H72.4583H18.2083Z" fill="#5BC1CF"/>
<path d="M40.8125 40.6875C40.8125 42.4686 40.4617 44.2322 39.7801 45.8776C39.0985 47.5231 38.0995 49.0182 36.8401 50.2776C35.5807 51.537 34.0856 52.536 32.4401 53.2176C30.7947 53.8992 29.0311 54.25 27.25 54.25C25.4689 54.25 23.7053 53.8992 22.0599 53.2176C20.4144 52.536 18.9193 51.537 17.6599 50.2776C16.4005 49.0182 15.4015 47.5231 14.7199 45.8776C14.0383 44.2322 13.6875 42.4686 13.6875 40.6875C13.6875 38.9064 14.0383 37.1428 14.7199 35.4974C15.4015 33.8519 16.4005 32.3568 17.6599 31.0974C18.9193 29.838 20.4144 28.839 22.0599 28.1574C23.7053 27.4758 25.4689 27.125 27.25 27.125C29.0311 27.125 30.7947 27.4758 32.4401 28.1574C34.0856 28.839 35.5807 29.838 36.8401 31.0974C38.0995 32.3568 39.0985 33.8519 39.7801 35.4974C40.4617 37.1428 40.8125 38.9064 40.8125 40.6875Z" fill="#1C7F8A"/>
<path d="M27.2507 0C22.2569 0 18.209 4.04795 18.209 9.04167V36.1667C18.209 41.1604 22.2569 45.2083 27.2507 45.2083C32.2444 45.2083 36.2923 41.1604 36.2923 36.1667V9.04167C36.2923 4.04795 32.2444 0 27.2507 0Z" fill="#BDC3C7"/>
<path d="M149.312 40.6875C149.313 42.4686 148.962 44.2322 148.28 45.8776C147.599 47.5231 146.6 49.0182 145.34 50.2776C144.081 51.537 142.586 52.536 140.94 53.2176C139.295 53.8992 137.531 54.25 135.75 54.25C133.969 54.25 132.205 53.8992 130.56 53.2176C128.914 52.536 127.419 51.537 126.16 50.2776C124.9 49.0182 123.901 47.5231 123.22 45.8776C122.538 44.2322 122.187 42.4686 122.188 40.6875C122.187 38.9064 122.538 37.1428 123.22 35.4974C123.901 33.8519 124.9 32.3568 126.16 31.0974C127.419 29.838 128.914 28.839 130.56 28.1574C132.205 27.4758 133.969 27.125 135.75 27.125C137.531 27.125 139.295 27.4758 140.94 28.1574C142.586 28.839 144.081 29.838 145.34 31.0974C146.6 32.3568 147.599 33.8519 148.28 35.4974C148.962 37.1428 149.313 38.9064 149.312 40.6875Z" fill="#1C7F8A"/>
<path d="M135.751 0C130.76 0 126.709 3.61667 126.709 9.04167V36.1667C126.709 40.6875 130.76 45.2083 135.751 45.2083C140.742 45.2083 144.792 40.6875 144.792 36.1667V9.04167C144.792 3.61667 140.742 0 135.751 0Z" fill="#BDC3C7"/>
<path d="M162.875 63.2915H0.125V72.3332H162.875V63.2915Z" fill="#1C7F8A"/>
<path d="M45.334 90.4165V99.4582H63.4173C68.4083 99.4582 72.459 103.075 72.459 108.5C72.459 113.021 68.4083 117.542 63.4173 117.542H54.3757V126.583H63.4173C68.4083 126.583 72.459 130.2 72.459 135.625C72.459 140.146 68.4083 144.667 63.4173 144.667H45.334V153.708H63.4173C73.4084 153.708 81.5007 145.571 81.5007 135.625C81.5007 130.2 79.0775 124.775 75.28 122.062C79.0775 118.446 81.5007 113.925 81.5007 108.5C81.5007 98.554 73.4084 90.4165 63.4173 90.4165H45.334Z" fill="#95A5A6"/>
<path d="M90.541 90.4165V99.4582H99.5827V144.667H90.541V153.708H99.5827H108.624H117.666V144.667H108.624V90.4165H99.5827H90.541Z" fill="#95A5A6"/>
</svg>
