<svg width="107" height="50" viewBox="0 0 107 50" fill="none" xmlns="http://www.w3.org/2000/svg">
<path d="M98.7161 9.53721C98.2783 8.91182 97.5591 8.53659 96.8086 8.53659H82.2683V2.34522C82.2683 1.06316 81.2051 0 79.9231 0H27.2339C25.9518 0 24.8887 1.06316 24.8887 2.34522V40.2439C24.8887 41.526 25.9518 42.5891 27.2339 42.5891H33.863C35.0825 46.8418 39.0225 50 43.6504 50C48.2783 50 52.2183 46.8731 53.4378 42.5891H79.4228C80.6423 46.8418 84.5822 50 89.2101 50C93.838 50 97.778 46.8731 98.9975 42.5891H103.844C105.126 42.5891 106.189 41.526 106.189 40.2439V20.9506C106.189 20.4503 106.033 19.9812 105.752 19.606L98.7161 9.53721ZM101.53 21.6385H91.0238V13.2583H95.6204L101.53 21.6385ZM29.5791 4.7217H77.5779V37.93H53.6567C52.7498 33.2083 48.6223 29.6435 43.6504 29.6435C38.6785 29.6435 34.5197 33.2083 33.6441 37.93H29.5791V4.7217ZM43.6504 45.3096C40.6173 45.3096 38.147 42.8393 38.147 39.8061C38.147 36.773 40.6173 34.3027 43.6504 34.3027C46.6835 34.3027 49.1538 36.773 49.1538 39.8061C49.1538 42.8393 46.6835 45.3096 43.6504 45.3096ZM89.2414 45.3096C86.2082 45.3096 83.738 42.8393 83.738 39.8061C83.738 36.773 86.2082 34.3027 89.2414 34.3027C92.2745 34.3027 94.7448 36.773 94.7448 39.8061C94.7448 42.8393 92.2745 45.3096 89.2414 45.3096ZM99.2477 37.93C98.3408 33.2083 94.2132 29.6435 89.2414 29.6435C86.5522 29.6435 84.0819 30.7067 82.2683 32.4265V13.2583H86.3021V23.9837C86.3021 25.2658 87.3652 26.329 88.6473 26.329H101.562V37.93H99.2477Z" fill="#FFD600"/>
<path d="M2.34522 4.72217H19.0744C20.3565 4.72217 21.4196 3.65901 21.4196 2.37695C21.4196 1.0949 20.3565 0.0317383 19.0744 0.0317383H2.34522C1.06316 0.0317383 0 1.0949 0 2.37695C0 3.65901 1.06316 4.72217 2.34522 4.72217Z" fill="#FFD600"/>
<path d="M19.074 8.56836H6.19092C4.90887 8.56836 3.8457 9.63152 3.8457 10.9136C3.8457 12.1956 4.90887 13.2588 6.19092 13.2588H19.074C20.356 13.2588 21.4192 12.1956 21.4192 10.9136C21.4192 9.63152 20.3873 8.56836 19.074 8.56836Z" fill="#FFD600"/>
<path d="M19.071 17.1042H10.9409C9.65887 17.1042 8.5957 18.1674 8.5957 19.4495C8.5957 20.7315 9.65887 21.7947 10.9409 21.7947H19.071C20.3531 21.7947 21.4162 20.7315 21.4162 19.4495C21.4162 18.1674 20.3843 17.1042 19.071 17.1042Z" fill="#FFD600"/>
<path d="M19.0774 25.6411H16.2632C14.9811 25.6411 13.918 26.7043 13.918 27.9863C13.918 29.2684 14.9811 30.3315 16.2632 30.3315H19.0774C20.3595 30.3315 21.4227 29.2684 21.4227 27.9863C21.4227 26.7043 20.3908 25.6411 19.0774 25.6411Z" fill="#FFD600"/>
</svg>
