<svg width="14" height="18" viewBox="0 0 14 18" fill="none" xmlns="http://www.w3.org/2000/svg">
<path d="M6.99998 17.054L6.70838 16.7382C6.65006 16.6752 5.26298 15.1676 3.85304 13.1244C1.93658 10.347 0.96476 8.02906 0.96476 6.23527C0.96476 2.9812 3.67214 0.333984 6.99998 0.333984C10.3278 0.333984 13.0352 2.9812 13.0352 6.23509C13.0352 8.02888 12.0636 10.3468 10.1469 13.1244C8.73698 15.1678 7.3499 16.6752 7.29158 16.7382L6.99998 17.054ZM6.99998 1.3748C4.1054 1.3748 2.15382 3.35705 2.15382 6.1873C2.15382 9.59994 5.85715 14.1602 6.99997 15.4686C8.14261 14.1596 11.8461 9.64562 11.8461 6.23527C11.8461 3.40501 9.89456 1.3748 6.99998 1.3748ZM6.99998 9.1808C5.33876 9.1808 3.98732 7.85939 3.98732 6.23527C3.98732 4.61114 5.33876 3.28938 6.99998 3.28938C8.6612 3.28938 10.0126 4.61096 10.0126 6.23509C10.0126 7.85922 8.6612 9.1808 6.99998 9.1808ZM6.99998 4.46855C5.7722 4.46855 5.2692 4.98681 5.2692 6.1873C5.2692 7.38762 5.77201 7.90605 6.99997 7.90605C8.22793 7.90605 8.73074 7.38762 8.73074 6.1873C8.73074 4.98663 8.22776 4.46855 6.99998 4.46855Z" fill="#31BCCC"/>
</svg>
