<svg width="13" height="19" viewBox="0 0 13 19" fill="none" xmlns="http://www.w3.org/2000/svg">
<path d="M6.50003 18.6045L6.19223 18.2601C6.13067 18.1913 4.66653 16.5466 3.17826 14.3177C1.15533 11.2878 0.129517 8.75913 0.129517 6.80226C0.129517 3.25237 2.98731 0.364502 6.50003 0.364502C10.0127 0.364502 12.8705 3.25237 12.8705 6.80207C12.8705 8.75893 11.8449 11.2876 9.8218 14.3177C8.33353 16.5468 6.86939 18.1913 6.80783 18.2601L6.50003 18.6045ZM6.50003 1.20297C3.44464 1.20297 0.959056 3.71471 0.959056 6.80226C0.959056 10.5251 5.29372 15.9136 6.50003 17.341C7.70615 15.913 12.041 10.5226 12.041 6.80226C12.041 3.71471 9.55542 1.20297 6.50003 1.20297ZM6.50003 10.0156C4.74652 10.0156 3.32 8.57404 3.32 6.80226C3.32 5.03049 4.74652 3.58857 6.50003 3.58857C8.25354 3.58857 9.68006 5.03029 9.68006 6.80207C9.68006 8.57385 8.25354 10.0156 6.50003 10.0156ZM6.50003 4.42703C5.20404 4.42703 4.14954 5.49263 4.14954 6.80226C4.14954 8.1117 5.20385 9.1773 6.50003 9.1773C7.79621 9.1773 8.85052 8.1117 8.85052 6.80226C8.85052 5.49244 7.79602 4.42703 6.50003 4.42703Z" fill="#5BC1CF"/>
</svg>
