<svg width="14" height="18" viewBox="0 0 14 18" fill="none" xmlns="http://www.w3.org/2000/svg">
<path d="M6.99985 13.2642L6.77305 13.0186C6.72769 12.9696 5.64885 11.797 4.55223 10.2079C3.06165 8.04765 2.30579 6.24482 2.30579 4.84965C2.30579 2.31871 4.41153 0.259766 6.99985 0.259766C9.58817 0.259766 11.6939 2.31871 11.6939 4.84951C11.6939 6.24469 10.9382 8.04751 9.44747 10.2079C8.35085 11.7972 7.27201 12.9696 7.22665 13.0186L6.99985 13.2642ZM6.99985 0.857559C4.74851 0.857559 2.91703 2.64834 2.91703 4.84965C2.91703 7.50393 6.11099 11.3457 6.99985 12.3633C7.88857 11.3453 11.0827 7.50215 11.0827 4.84965C11.0827 2.64834 9.25119 0.857559 6.99985 0.857559ZM6.99985 7.14062C5.70779 7.14062 4.65667 6.11286 4.65667 4.84965C4.65667 3.58644 5.70779 2.5584 6.99985 2.5584C8.29191 2.5584 9.34303 3.5863 9.34303 4.84951C9.34303 6.11272 8.29191 7.14062 6.99985 7.14062ZM6.99985 3.1562C6.04491 3.1562 5.26791 3.91593 5.26791 4.84965C5.26791 5.78323 6.04477 6.54297 6.99985 6.54297C7.95493 6.54297 8.73179 5.78323 8.73179 4.84965C8.73179 3.91579 7.95479 3.1562 6.99985 3.1562Z" fill="white"/>
</svg>
