<svg width="20" height="20" viewBox="0 0 20 20" fill="none" xmlns="http://www.w3.org/2000/svg">
<path d="M11.4813 13.3358C10.3773 14.0731 9.07935 14.4666 7.75164 14.4666L11.4813 13.3358ZM11.4813 13.3358C12.5853 12.5985 13.4458 11.5505 13.9539 10.3244M11.4813 13.3358L13.9539 10.3244M13.9539 10.3244C14.462 9.0982 14.5949 7.74897 14.3358 6.4473M13.9539 10.3244L14.3358 6.4473M14.3358 6.4473C14.0767 5.14563 13.4372 3.95003 12.4982 3.01168M14.3358 6.4473L12.4982 3.01168M12.4982 3.01168C11.5592 2.07334 10.363 1.43439 9.06071 1.1756M12.4982 3.01168L9.06071 1.1756M9.06071 1.1756C7.75846 0.916816 6.40866 1.0498 5.18202 1.55775M9.06071 1.1756L5.18202 1.55775M5.18202 1.55775C3.95537 2.0657 2.90694 2.92582 2.16934 4.02937M5.18202 1.55775L2.16934 4.02937M2.16934 4.02937C1.43176 5.13291 1.03813 6.4303 1.03829 7.75747L2.16934 4.02937ZM12.8676 13.7513L12.3414 13.8685L12.1152 13.5663C10.6447 14.6671 8.81137 15.1699 6.98463 14.9734C5.15789 14.7769 3.47364 13.8957 2.27124 12.5074C1.06885 11.1191 0.437686 9.32701 0.504861 7.49218C0.572035 5.65735 1.33256 3.91611 2.63327 2.61937C3.93397 1.32262 5.67818 0.566769 7.5144 0.504217C9.35063 0.441664 11.1423 1.07706 12.5283 2.2823C13.9144 3.48752 14.7918 5.17297 14.9838 6.99898C15.1758 8.82498 14.6682 10.6559 13.5632 12.1228L13.1882 12.6205L13.7554 12.8787C13.8283 12.9118 13.8946 12.9577 13.9513 13.0141C13.9514 13.0142 13.9516 13.0144 13.9517 13.0145L19.2822 18.3429L19.2821 18.343L19.2921 18.3525C19.3567 18.4136 19.4083 18.4869 19.444 18.5683C19.4797 18.6496 19.4987 18.7373 19.4999 18.8261C19.5012 18.9149 19.4846 19.003 19.4511 19.0853C19.4177 19.1676 19.3681 19.2424 19.3052 19.3052C19.2423 19.368 19.1675 19.4176 19.0851 19.4511C19.0027 19.4845 18.9144 19.5012 18.8254 19.4999C18.7365 19.4987 18.6487 19.4797 18.5672 19.444L18.3665 19.9019L18.5672 19.444C18.4858 19.4083 18.4123 19.3566 18.3512 19.2921L18.3513 19.292L18.3416 19.2823L13.0113 13.9541L13.0093 13.9521C12.9506 13.894 12.9026 13.826 12.8676 13.7513ZM1.03829 7.75753C1.03829 8.63867 1.21196 9.51118 1.54936 10.3252C1.88677 11.1393 2.38131 11.8789 3.00473 12.5019C3.62814 13.1249 4.36822 13.6191 5.1827 13.9562C5.99716 14.2933 6.87006 14.4667 7.75157 14.4666L1.03829 7.75753Z" stroke="#C5C5C4" stroke-opacity="0.5"/>
</svg>
