<svg width="13" height="8" viewBox="0 0 13 8" fill="none" xmlns="http://www.w3.org/2000/svg">
<path d="M9.64983e-06 0.303246C9.64983e-06 0.386882 0.039516 0.470518 0.0790417 0.512335L6.04744 7.11953C6.16601 7.24499 6.32412 7.24499 6.44269 7.11953L12.4111 0.512335C12.5296 0.386882 12.5296 0.219611 12.4111 0.0941582C12.2925 -0.0312948 12.1344 -0.0312948 12.0158 0.0941582L6.24506 6.45045L0.474299 0.0941582C0.355722 -0.0312948 0.197619 -0.0312948 0.0790417 0.0941582C-9.65336e-06 0.135976 9.64983e-06 0.219611 9.64983e-06 0.303246Z" fill="#4F4F4F"/>
<path d="M9.64983e-06 0.303246C9.64983e-06 0.386882 0.039516 0.470518 0.0790417 0.512335L6.04744 7.11953C6.16601 7.24499 6.32412 7.24499 6.44269 7.11953L12.4111 0.512335C12.5296 0.386882 12.5296 0.219611 12.4111 0.0941582C12.2925 -0.0312948 12.1344 -0.0312948 12.0158 0.0941582L6.24506 6.45045L0.474299 0.0941582C0.355722 -0.0312948 0.197619 -0.0312948 0.0790417 0.0941582C-9.65336e-06 0.135976 9.64983e-06 0.219611 9.64983e-06 0.303246Z" fill="#4F4F4F"/>
</svg>
