<svg width="19" height="12" viewBox="0 0 19 12" fill="none" xmlns="http://www.w3.org/2000/svg">
<path d="M17.312 12H1.68801C0.745866 12 0 11.3854 0 10.6092V1.39083C0 0.614552 0.745866 0 1.68801 0H17.312C18.2541 0 19 0.614552 19 1.39083V10.6092C19 11.3854 18.2541 12 17.312 12ZM1.68801 0.937994C1.37397 0.937994 1.13843 1.13207 1.13843 1.39083V10.6092C1.13843 10.8679 1.37397 11.062 1.68801 11.062H17.312C17.626 11.062 17.8616 10.8679 17.8616 10.6092V1.39083C17.8616 1.13207 17.626 0.937994 17.312 0.937994H1.68801Z" fill="#5BC1CF"/>
<path d="M0.549805 1.87598H18.4506V4.6253H0.549805V1.87598Z" fill="#5BC1CF"/>
<path d="M2.2373 6.46899H2.78689V7.407H2.2373V6.46899Z" fill="#5BC1CF"/>
<path d="M3.33691 6.46899H3.92576V7.407H3.33691V6.46899Z" fill="#5BC1CF"/>
<path d="M4.47559 6.46899H5.02517V7.407H4.47559V6.46899Z" fill="#5BC1CF"/>
<path d="M6.16309 6.46899H6.71267V7.407H6.16309V6.46899Z" fill="#5BC1CF"/>
<path d="M7.2627 6.46899H7.81228V7.407H7.2627V6.46899Z" fill="#5BC1CF"/>
<path d="M8.40039 6.46899H8.94998V7.407H8.40039V6.46899Z" fill="#5BC1CF"/>
<path d="M10.0498 6.46899H10.5994V7.407H10.0498V6.46899Z" fill="#5BC1CF"/>
<path d="M11.1875 6.46899H11.7371V7.407H11.1875V6.46899Z" fill="#5BC1CF"/>
<path d="M12.2871 6.46899H12.8367V7.407H12.2871V6.46899Z" fill="#5BC1CF"/>
<path d="M13.9756 6.46899H14.5252V7.407H13.9756V6.46899Z" fill="#5BC1CF"/>
<path d="M15.0742 6.46899H15.6631V7.407H15.0742V6.46899Z" fill="#5BC1CF"/>
<path d="M16.2129 6.46899H16.7625V7.407H16.2129V6.46899Z" fill="#5BC1CF"/>
</svg>
