<svg width="19" height="14" viewBox="0 0 19 14" fill="none" xmlns="http://www.w3.org/2000/svg">
<path d="M9.50065 1.97559C8.87435 1.97559 8.2621 2.16097 7.74135 2.50828C7.22059 2.8556 6.81471 3.34926 6.57503 3.92683C6.33536 4.5044 6.27265 5.13994 6.39483 5.75308C6.51702 6.36622 6.81861 6.92943 7.26148 7.37149C7.70435 7.81354 8.26859 8.11458 8.88287 8.23654C9.49714 8.3585 10.1339 8.29591 10.7125 8.05667C11.2911 7.81743 11.7857 7.4123 12.1336 6.8925C12.4816 6.3727 12.6673 5.76159 12.6673 5.13643C12.6673 4.29812 12.3337 3.49415 11.7398 2.90138C11.146 2.3086 10.3405 1.97559 9.50065 1.97559ZM9.50065 7.50706C9.03092 7.50706 8.57174 7.36803 8.18117 7.10754C7.79061 6.84705 7.4862 6.47681 7.30644 6.04363C7.12668 5.61046 7.07965 5.1338 7.17129 4.67394C7.26293 4.21409 7.48912 3.79168 7.82127 3.46014C8.15342 3.1286 8.57661 2.90282 9.03731 2.81135C9.49802 2.71988 9.97555 2.76682 10.4095 2.94625C10.8435 3.12568 11.2144 3.42953 11.4754 3.81938C11.7364 4.20923 11.8757 4.66756 11.8757 5.13643C11.8757 5.76516 11.6254 6.36814 11.18 6.81272C10.7346 7.2573 10.1305 7.50706 9.50065 7.50706Z" fill="#4F4F4F"/>
<path d="M18.6042 0H0.395833C0.290852 0 0.19017 0.0416271 0.115937 0.115724C0.0417038 0.18982 0 0.290317 0 0.395106L0 12.9753C0 13.0801 0.0417038 13.1806 0.115937 13.2546C0.19017 13.3287 0.290852 13.3704 0.395833 13.3704H18.6042C18.7091 13.3704 18.8098 13.3287 18.8841 13.2546C18.9583 13.1806 19 13.0801 19 12.9753V0.395106C19 0.290317 18.9583 0.18982 18.8841 0.115724C18.8098 0.0416271 18.7091 0 18.6042 0V0ZM18.2083 9.48253H15.9125C15.9992 8.90565 16.269 8.37173 16.6822 7.95925C17.0955 7.54676 17.6304 7.27746 18.2083 7.19092V9.48253ZM15.1288 9.48253H3.87125C3.7829 8.69764 3.43004 7.96599 2.87052 7.4075C2.311 6.84901 1.578 6.4968 0.791667 6.40861V3.86413C1.578 3.77594 2.311 3.42373 2.87052 2.86524C3.43004 2.30675 3.7829 1.5751 3.87125 0.790211H15.1288C15.2171 1.5751 15.57 2.30675 16.1295 2.86524C16.689 3.42373 17.422 3.77594 18.2083 3.86413V6.40861C17.422 6.4968 16.689 6.84901 16.1295 7.4075C15.57 7.96599 15.2171 8.69764 15.1288 9.48253ZM3.0875 9.48253H0.791667V7.19092C1.36962 7.27746 1.90451 7.54676 2.31776 7.95925C2.731 8.37173 3.0008 8.90565 3.0875 9.48253ZM0.791667 10.2727H18.2083V11.063H0.791667V10.2727ZM18.2083 0.790211V3.08182C17.6304 2.99528 17.0955 2.72598 16.6822 2.3135C16.269 1.90101 15.9992 1.3671 15.9125 0.790211H18.2083ZM0.791667 0.790211H3.0875C3.0008 1.3671 2.731 1.90101 2.31776 2.3135C1.90451 2.72598 1.36962 2.99528 0.791667 3.08182V0.790211ZM18.2083 12.5802H0.791667V11.8532H18.2083V12.5802Z" fill="#4F4F4F"/>
</svg>
