<svg width="29" height="21" viewBox="0 0 29 21" fill="none" xmlns="http://www.w3.org/2000/svg">
<path d="M14.4998 3.01514C13.5439 3.01514 12.6094 3.29809 11.8146 3.8282C11.0197 4.35832 10.4002 5.1118 10.0344 5.99335C9.6686 6.8749 9.57288 7.84494 9.75938 8.78079C9.94587 9.71664 10.4062 10.5763 11.0822 11.251C11.7581 11.9257 12.6193 12.3852 13.5569 12.5713C14.4945 12.7575 15.4663 12.6619 16.3495 12.2968C17.2327 11.9316 17.9875 11.3133 18.5186 10.5199C19.0497 9.72653 19.3332 8.79377 19.3332 7.83958C19.3332 6.56006 18.8239 5.33294 17.9175 4.42818C17.0111 3.52343 15.7817 3.01514 14.4998 3.01514ZM14.4998 11.4579C13.7829 11.4579 13.082 11.2457 12.4859 10.8481C11.8898 10.4505 11.4251 9.88543 11.1508 9.22426C10.8764 8.5631 10.8046 7.83557 10.9445 7.13368C11.0844 6.43179 11.4296 5.78707 11.9366 5.28103C12.4435 4.775 13.0895 4.43039 13.7926 4.29077C14.4958 4.15116 15.2247 4.22281 15.8871 4.49668C16.5494 4.77054 17.1156 5.23431 17.5139 5.82934C17.9122 6.42438 18.1248 7.12394 18.1248 7.83958C18.1248 8.79923 17.7429 9.71956 17.0631 10.3981C16.3833 11.0767 15.4613 11.4579 14.4998 11.4579Z" fill="#5BC1CF"/>
<path d="M28.3958 0H0.604167C0.443932 0 0.29026 0.0635361 0.176956 0.176631C0.0636531 0.289726 0 0.443115 0 0.603056L0 19.8044C0 19.9643 0.0636531 20.1177 0.176956 20.2308C0.29026 20.3439 0.443932 20.4074 0.604167 20.4074H28.3958C28.5561 20.4074 28.7097 20.3439 28.823 20.2308C28.9363 20.1177 29 19.9643 29 19.8044V0.603056C29 0.443115 28.9363 0.289726 28.823 0.176631C28.7097 0.0635361 28.5561 0 28.3958 0V0ZM27.7917 14.4733H24.2875C24.4198 13.5928 24.8316 12.7779 25.4624 12.1483C26.0931 11.5187 26.9095 11.1077 27.7917 10.9756V14.4733ZM23.0913 14.4733H5.90875C5.77389 13.2754 5.23533 12.1586 4.38132 11.3062C3.52731 10.4538 2.40853 9.91617 1.20833 9.78156V5.89789C2.40853 5.76328 3.52731 5.2257 4.38132 4.37326C5.23533 3.52083 5.77389 2.4041 5.90875 1.20611H23.0913C23.2261 2.4041 23.7647 3.52083 24.6187 4.37326C25.4727 5.2257 26.5915 5.76328 27.7917 5.89789V9.78156C26.5915 9.91617 25.4727 10.4538 24.6187 11.3062C23.7647 12.1586 23.2261 13.2754 23.0913 14.4733ZM4.7125 14.4733H1.20833V10.9756C2.09047 11.1077 2.90689 11.5187 3.53763 12.1483C4.16837 12.7779 4.58017 13.5928 4.7125 14.4733ZM1.20833 15.6795H27.7917V16.8856H1.20833V15.6795ZM27.7917 1.20611V4.70384C26.9095 4.57175 26.0931 4.16071 25.4624 3.53113C24.8316 2.90155 24.4198 2.08662 24.2875 1.20611H27.7917ZM1.20833 1.20611H4.7125C4.58017 2.08662 4.16837 2.90155 3.53763 3.53113C2.90689 4.16071 2.09047 4.57175 1.20833 4.70384V1.20611ZM27.7917 19.2013H1.20833V18.0917H27.7917V19.2013Z" fill="#5BC1CF"/>
</svg>
