<svg width="19" height="19" viewBox="0 0 19 19" fill="none" xmlns="http://www.w3.org/2000/svg">
<path d="M2.37502 17.2187C2.29688 17.2192 2.21942 17.2042 2.14708 17.1747C2.07474 17.1451 2.00894 17.1016 1.95346 17.0465C1.89781 16.9914 1.85364 16.9257 1.8235 16.8533C1.79335 16.781 1.77783 16.7034 1.77783 16.625C1.77783 16.5466 1.79335 16.469 1.8235 16.3966C1.85364 16.3243 1.89781 16.2586 1.95346 16.2034L16.2035 1.95343C16.3153 1.84162 16.4669 1.77881 16.625 1.77881C16.7831 1.77881 16.9348 1.84162 17.0466 1.95343C17.1584 2.06523 17.2212 2.21687 17.2212 2.37499C17.2212 2.5331 17.1584 2.68475 17.0466 2.79655L2.79659 17.0465C2.74111 17.1016 2.67531 17.1451 2.60297 17.1747C2.53063 17.2042 2.45317 17.2192 2.37502 17.2187Z" fill="#5BC1CF"/>
<path d="M16.6255 17.2187C16.5473 17.2192 16.4699 17.2042 16.3975 17.1747C16.3252 17.1451 16.2594 17.1016 16.2039 17.0465L1.95391 2.79655C1.84211 2.68475 1.7793 2.5331 1.7793 2.37499C1.7793 2.21687 1.84211 2.06523 1.95391 1.95343C2.06572 1.84162 2.21736 1.77881 2.37548 1.77881C2.53359 1.77881 2.68523 1.84162 2.79704 1.95343L17.047 16.2034C17.1027 16.2586 17.1469 16.3243 17.177 16.3966C17.2071 16.469 17.2227 16.5466 17.2227 16.625C17.2227 16.7034 17.2071 16.781 17.177 16.8533C17.1469 16.9257 17.1027 16.9914 17.047 17.0465C16.9916 17.1016 16.9258 17.1451 16.8534 17.1747C16.7811 17.2042 16.7036 17.2192 16.6255 17.2187Z" fill="#5BC1CF"/>
</svg>
