<svg width="16" height="22" viewBox="0 0 16 22" fill="none" xmlns="http://www.w3.org/2000/svg">
<path d="M8.27584 13.0784L6.00891 12.9041C5.94774 14.9073 5.90787 15.285 5.83453 15.5197C5.84428 15.5776 3.21901 19.3561 3.21901 19.3561C3.21901 19.3561 2.95129 19.6236 3.39327 20.0536C3.78374 20.4335 4.12322 20.4024 4.26517 20.228C4.40712 20.0536 7.31195 16.3009 7.57845 16.0429C7.89527 15.7609 8.02531 15.437 8.10146 14.2991C8.17761 13.1612 8.27584 13.0784 8.27584 13.0784Z" fill="#333333" stroke="#333333"/>
<path d="M8.45992 14.4679C8.38175 14.3027 8.30467 14.1314 8.45992 13.2877C8.6 12.5265 9.43134 13.0047 9.74995 13.6514C12.904 20.0537 12.5552 20.2282 12.3808 20.4026C12.2065 20.5769 12.0321 20.5769 11.6897 20.5755C11.3498 20.5741 10.9235 19.6733 8.51217 14.5783L8.45992 14.4679Z" fill="black" stroke="black"/>
<path d="M14.4734 11.6834C12.4833 12.045 11.1955 9.69855 9.76514 9.24213C10.3947 9.29583 10.9027 9.19658 11.5089 8.71899C12.5876 10.4628 14.3309 10.4623 14.8545 10.9859C15.2033 11.3347 14.8641 11.6125 14.4734 11.6834Z" fill="black" stroke="black"/>
<path d="M4.81062 12.9042C4.69237 13.0563 4.49422 13.0786 4.28746 13.0786C2.72118 13.0105 3.93868 9.0679 3.93868 9.0679C3.93868 9.0679 4.16415 7.86353 4.35969 7.49836C4.66296 6.93199 5.50874 6.975 5.68311 6.97517C5.85749 6.97534 6.55501 8.02128 6.55501 8.19583C6.55501 8.37038 5.38473 8.89353 5.05721 9.59091C4.56583 10.6372 4.88283 12.0322 4.88283 12.0322C4.88283 12.0322 4.99757 12.6639 4.81062 12.9042Z" fill="black"/>
<path d="M4.28746 13.0786C4.42366 13.0786 4.15126 13.0786 4.28746 13.0786ZM4.28746 13.0786C4.49422 13.0786 4.69237 13.0563 4.81062 12.9042C4.99757 12.6639 4.88283 12.0322 4.88283 12.0322C4.88283 12.0322 4.56583 10.6372 5.05721 9.59091C5.38473 8.89353 6.55501 8.37038 6.55501 8.19583C6.55501 8.02128 5.85749 6.97534 5.68311 6.97517C5.50874 6.975 4.66296 6.93199 4.35969 7.49836C4.16415 7.86353 3.93868 9.0679 3.93868 9.0679C3.93868 9.0679 2.72118 13.0105 4.28746 13.0786ZM4.28746 13.0786C4.3555 13.0816 4.21936 13.0786 4.28746 13.0786Z" stroke="black"/>
<path d="M2.58373 2.96436H6.07132C6.94322 2.96436 8.16388 3.66187 8.33825 4.01063C8.51264 4.35939 9.90767 4.70815 9.90767 4.70815C10.843 5.37636 11.2903 6.29347 11.4771 6.8007C11.6639 7.30794 11.6519 8.02136 11.6515 8.5445C11.6514 8.63481 11.6513 8.68874 11.6513 8.71885C11.6513 8.74896 11.6514 8.8029 11.6515 8.89326C11.6519 9.41639 9.90767 9.06764 9.90767 9.59077C9.90767 10.1139 9.90808 12.7296 9.90767 13.0784C9.90726 13.4271 6.76843 13.0784 6.2457 13.0784C5.72298 13.0784 4.88263 12.2065 4.88263 11.6833C4.88263 11.1602 4.92539 10.4215 5.23138 9.59078C5.49973 8.86227 6.44757 8.66653 6.41968 7.84698C6.39652 7.16629 5.77162 6.97081 5.057 7.14946C4.35949 7.32384 4.46629 7.11024 4.18511 7.6726C4.01073 8.02136 3.83635 8.89326 3.83635 8.89326C3.77304 9.10727 3.55599 9.77193 3.48759 10.1139C3.31321 10.9858 3.31321 11.1602 3.13883 10.9858C2.96445 10.8114 0.347151 9.37516 0.14239 9.06764C-0.0623707 8.76011 -0.0319575 8.71888 0.142422 8.02136C0.316801 7.32384 1.71184 2.96436 2.58373 2.96436Z" fill="#5BC1CF"/>
<path d="M2.58373 2.96436H6.07132C6.94322 2.96436 8.16388 3.66187 8.33825 4.01063C8.51264 4.35939 9.90767 4.70815 9.90767 4.70815C10.843 5.37636 11.2903 6.29347 11.4771 6.8007C11.6639 7.30794 11.6519 8.02136 11.6515 8.5445C11.6514 8.63481 11.6513 8.68874 11.6513 8.71885C11.6513 8.74896 11.6514 8.8029 11.6515 8.89326C11.6519 9.41639 9.90767 9.06764 9.90767 9.59077C9.90767 10.1139 9.90808 12.7296 9.90767 13.0784C9.90726 13.4271 6.76843 13.0784 6.2457 13.0784C5.72298 13.0784 4.88263 12.2065 4.88263 11.6833C4.88263 11.1602 4.92539 10.4215 5.23138 9.59078C5.49973 8.86227 6.44757 8.66653 6.41968 7.84698C6.39652 7.16629 5.77162 6.97081 5.057 7.14946C4.35949 7.32384 4.46629 7.11024 4.18511 7.6726C4.01073 8.02136 3.83635 8.89326 3.83635 8.89326C3.77304 9.10727 3.55599 9.77193 3.48759 10.1139C3.31321 10.9858 3.31321 11.1602 3.13883 10.9858C2.96445 10.8114 0.347151 9.37516 0.14239 9.06764C-0.0623707 8.76011 -0.0319575 8.71888 0.142422 8.02136C0.316801 7.32384 1.71184 2.96436 2.58373 2.96436Z" fill="url(#paint0_linear)"/>
<path d="M6.27783 8.02152C6.62659 8.02152 7.32411 5.75458 7.14973 5.23145" stroke="#14A0B4" stroke-width="0.5"/>
<circle cx="9.93979" cy="2.26693" r="2.26693" fill="#4F4F4F"/>
<path d="M9.76514 5.92896C9.93952 5.92896 10.0426 6.87459 10.1139 7.49837C10.1912 8.17496 10.1139 9.59092 10.1139 9.24216" stroke="#14A0B4" stroke-width="0.5"/>
<defs>
<linearGradient id="paint0_linear" x1="8.54459" y1="5.75443" x2="0.871897" y2="8.89326" gradientUnits="userSpaceOnUse">
<stop stop-color="#7CD8E4"/>
<stop offset="1" stop-color="#5BC1CF"/>
</linearGradient>
</defs>
</svg>
