<svg width="25" height="25" viewBox="0 0 25 25" fill="none" xmlns="http://www.w3.org/2000/svg">
<path d="M21.785 7.7188H18.1796C18.5515 7.51318 18.8444 7.31536 19.061 7.08973C20.611 5.47507 20.611 2.8496 19.061 1.23504C18.3101 0.452899 17.3118 0.0229492 16.2499 0.0229492C15.188 0.0229492 14.1897 0.454118 13.4388 1.23625C12.9045 1.79276 12.4596 2.83163 12.0866 4.39841C11.7137 2.83147 11.2688 1.79273 10.7345 1.23613C9.98358 0.454044 8.98524 0.0230667 7.92333 0.0230667C6.86144 0.0230667 5.86309 0.453193 5.11223 1.23532C3.56215 2.84982 3.56214 5.47256 5.1122 7.08717C5.33005 7.31407 5.62486 7.51318 5.99961 7.7188H2.36079C1.07654 7.7188 0.027832 8.81342 0.027832 10.1511V21.6987C0.027832 23.0364 1.07654 24.1096 2.36079 24.1096H21.785C23.0692 24.1096 24.1111 23.0364 24.1111 21.6987V10.1511C24.1111 8.81342 23.0692 7.7188 21.785 7.7188ZM14.5088 9.6575V22.1709H9.67243V9.6575H14.5088ZM13.7124 5.71136C14.1751 3.35963 14.6284 2.7422 14.7563 2.60896C15.1553 2.19342 15.6857 1.96452 16.2499 1.96452C16.8141 1.96452 17.3446 2.19342 17.7435 2.60896C18.5671 3.46682 18.5671 4.86265 17.7435 5.72049C17.2588 6.22545 15.3474 6.74855 13.4813 7.05274C13.5411 6.65502 13.6179 6.19182 13.7124 5.71136ZM6.42971 2.60887C6.82868 2.19333 7.35913 1.96448 7.92333 1.96448C8.48755 1.96448 9.01803 2.19335 9.41694 2.60887C9.9017 3.11387 10.4039 5.10481 10.696 7.04857C10.3141 6.98627 9.86941 6.90624 9.40814 6.80776C7.15038 6.32581 6.55759 5.85363 6.4297 5.72045C6.03075 5.30491 5.81104 4.75238 5.81104 4.16465C5.81102 3.57697 6.03076 3.02446 6.42971 2.60887ZM1.88907 21.6987V10.1511C1.88907 9.88353 2.10394 9.6575 2.36079 9.6575H7.81119V22.1709H2.36079C2.10394 22.1709 1.88907 21.9663 1.88907 21.6987ZM22.2499 21.6987C22.2499 21.9663 22.0418 22.1709 21.785 22.1709H16.3701V9.65748H21.785C22.0418 9.65748 22.2499 9.88353 22.2499 10.1511V21.6987Z" fill="white"/>
</svg>
