<svg width="20" height="20" viewBox="0 0 20 20" fill="none" xmlns="http://www.w3.org/2000/svg">
<path d="M10.052 7.27387C9.63117 7.27387 9.2198 7.14909 8.86991 6.9153C8.52002 6.68151 8.24731 6.34921 8.08628 5.96043C7.92524 5.57166 7.8831 5.14385 7.9652 4.73113C8.0473 4.3184 8.24994 3.93929 8.54749 3.64173C8.84505 3.34417 9.22417 3.14153 9.63689 3.05944C10.0496 2.97734 10.4774 3.01948 10.8662 3.18051C11.255 3.34155 11.5873 3.61426 11.8211 3.96415C12.0549 4.31404 12.1796 4.7254 12.1796 5.14621C12.1796 5.71051 11.9555 6.25168 11.5565 6.6507C11.1574 7.04971 10.6163 7.27387 10.052 7.27387ZM10.052 3.67322C9.76065 3.67322 9.47586 3.75961 9.23362 3.92146C8.99139 4.08332 8.80259 4.31337 8.69111 4.58252C8.57962 4.85168 8.55045 5.14785 8.60728 5.43358C8.66412 5.71932 8.80441 5.98178 9.01041 6.18778C9.21641 6.39378 9.47888 6.53407 9.76461 6.59091C10.0503 6.64774 10.3465 6.61857 10.6157 6.50708C10.8848 6.3956 11.1149 6.2068 11.2767 5.96457C11.4386 5.72233 11.525 5.43755 11.525 5.14621C11.525 4.75555 11.3698 4.38089 11.0935 4.10465C10.8173 3.82841 10.4426 3.67322 10.052 3.67322Z" fill="#5BC1CF"/>
<path d="M10.052 17.2139C9.48769 17.2139 8.94651 16.9885 8.54749 16.5872C8.14848 16.1859 7.92432 15.6417 7.92432 15.0742V10.6302C7.92432 10.0627 8.14848 9.51846 8.54749 9.11718C8.94651 8.71591 9.48769 8.49048 10.052 8.49048C10.6163 8.49048 11.1574 8.71591 11.5565 9.11718C11.9555 9.51846 12.1796 10.0627 12.1796 10.6302V15.0742C12.1796 15.6417 11.9555 16.1859 11.5565 16.5872C11.1574 16.9885 10.6163 17.2139 10.052 17.2139ZM10.052 9.22511C9.66131 9.22511 9.38478 9.32467 9.10854 9.60247C8.8323 9.88027 8.66558 10.2373 8.66558 10.6302V15.0329C8.66558 15.4257 8.77562 15.8438 9.05186 16.1216C9.3281 16.3994 9.7136 16.6037 10.1043 16.6037C10.4949 16.6037 10.7714 16.3994 11.0477 16.1216C11.3239 15.8438 11.3727 15.4671 11.3727 15.0742V10.6302C11.3727 10.2373 11.2716 9.88027 10.9953 9.60247C10.7191 9.32467 10.4426 9.22511 10.052 9.22511Z" fill="#5BC1CF"/>
<circle cx="10" cy="10" r="9.45" stroke="#5BC1CF" stroke-width="1.1"/>
</svg>
