<svg width="43" height="43" viewBox="0 0 43 43" fill="none" xmlns="http://www.w3.org/2000/svg">
<circle cx="21.5" cy="21.5" r="21.5" fill="#5BC1CF"/>
<path d="M23.76 24.796V17.704C23.76 17.496 23.768 17.268 23.784 17.02C23.8 16.772 23.824 16.52 23.856 16.264L17.592 24.796H23.76ZM28.236 24.796V26.02C28.236 26.148 28.196 26.256 28.116 26.344C28.044 26.432 27.928 26.476 27.768 26.476H25.632V31H23.76V26.476H16.128C15.968 26.476 15.828 26.432 15.708 26.344C15.596 26.248 15.524 26.132 15.492 25.996L15.276 24.904L23.64 13.804H25.632V24.796H28.236Z" fill="white"/>
</svg>
