<svg width="43" height="43" viewBox="0 0 43 43" fill="none" xmlns="http://www.w3.org/2000/svg">
<circle cx="21.5" cy="21.5" r="21.5" fill="#5BC1CF"/>
<path d="M21.936 29.416C22.512 29.416 23.032 29.324 23.496 29.14C23.968 28.956 24.368 28.7 24.696 28.372C25.032 28.044 25.288 27.656 25.464 27.208C25.648 26.76 25.74 26.272 25.74 25.744C25.74 25.184 25.652 24.68 25.476 24.232C25.3 23.776 25.048 23.392 24.72 23.08C24.4 22.76 24.016 22.516 23.568 22.348C23.12 22.18 22.628 22.096 22.092 22.096C21.516 22.096 20.996 22.196 20.532 22.396C20.068 22.588 19.672 22.852 19.344 23.188C19.024 23.516 18.776 23.9 18.6 24.34C18.432 24.772 18.348 25.224 18.348 25.696C18.348 26.248 18.428 26.752 18.588 27.208C18.748 27.664 18.98 28.056 19.284 28.384C19.596 28.712 19.972 28.968 20.412 29.152C20.86 29.328 21.368 29.416 21.936 29.416ZM20.688 20.248C20.536 20.44 20.388 20.628 20.244 20.812C20.108 20.988 19.976 21.164 19.848 21.34C20.256 21.06 20.704 20.844 21.192 20.692C21.68 20.54 22.212 20.464 22.788 20.464C23.484 20.464 24.14 20.58 24.756 20.812C25.372 21.036 25.908 21.368 26.364 21.808C26.828 22.24 27.196 22.776 27.468 23.416C27.74 24.048 27.876 24.772 27.876 25.588C27.876 26.38 27.732 27.116 27.444 27.796C27.156 28.476 26.752 29.068 26.232 29.572C25.72 30.076 25.1 30.472 24.372 30.76C23.652 31.048 22.856 31.192 21.984 31.192C21.12 31.192 20.336 31.056 19.632 30.784C18.928 30.504 18.328 30.112 17.832 29.608C17.344 29.096 16.964 28.48 16.692 27.76C16.428 27.032 16.296 26.22 16.296 25.324C16.296 24.572 16.46 23.772 16.788 22.924C17.124 22.068 17.656 21.156 18.384 20.188L22.752 14.32C22.864 14.176 23.016 14.056 23.208 13.96C23.408 13.856 23.636 13.804 23.892 13.804H25.788L20.688 20.248Z" fill="white"/>
</svg>
