<svg width="43" height="43" viewBox="0 0 43 43" fill="none" xmlns="http://www.w3.org/2000/svg">
<circle cx="21.5" cy="21.5" r="21.5" fill="#5BC1CF"/>
<path d="M19.344 20.296C20.24 20.104 21.064 20.008 21.816 20.008C22.712 20.008 23.504 20.14 24.192 20.404C24.88 20.668 25.452 21.032 25.908 21.496C26.372 21.96 26.72 22.508 26.952 23.14C27.192 23.772 27.312 24.46 27.312 25.204C27.312 26.116 27.152 26.94 26.832 27.676C26.52 28.412 26.084 29.044 25.524 29.572C24.972 30.092 24.32 30.492 23.568 30.772C22.816 31.052 22.004 31.192 21.132 31.192C20.628 31.192 20.144 31.14 19.68 31.036C19.216 30.94 18.78 30.808 18.372 30.64C17.972 30.472 17.6 30.28 17.256 30.064C16.912 29.848 16.608 29.62 16.344 29.38L17.004 28.468C17.148 28.26 17.336 28.156 17.568 28.156C17.728 28.156 17.908 28.22 18.108 28.348C18.308 28.468 18.552 28.604 18.84 28.756C19.128 28.908 19.464 29.048 19.848 29.176C20.24 29.296 20.704 29.356 21.24 29.356C21.84 29.356 22.38 29.26 22.86 29.068C23.34 28.876 23.752 28.604 24.096 28.252C24.44 27.892 24.704 27.464 24.888 26.968C25.072 26.472 25.164 25.916 25.164 25.3C25.164 24.764 25.084 24.28 24.924 23.848C24.772 23.416 24.536 23.048 24.216 22.744C23.904 22.44 23.512 22.204 23.04 22.036C22.568 21.868 22.016 21.784 21.384 21.784C20.952 21.784 20.5 21.82 20.028 21.892C19.564 21.964 19.088 22.08 18.6 22.24L17.256 21.844L18.636 13.804H26.784V14.74C26.784 15.044 26.688 15.296 26.496 15.496C26.312 15.688 25.992 15.784 25.536 15.784H20.136L19.344 20.296Z" fill="white"/>
</svg>
