<svg width="43" height="43" viewBox="0 0 43 43" fill="none" xmlns="http://www.w3.org/2000/svg">
<circle cx="21.5" cy="21.5" r="21.5" fill="#5BC1CF"/>
<path d="M26.844 28.972C27.076 28.972 27.26 29.04 27.396 29.176C27.532 29.312 27.6 29.488 27.6 29.704V31H16.128V30.268C16.128 30.116 16.16 29.96 16.224 29.8C16.288 29.64 16.388 29.492 16.524 29.356L22.032 23.824C22.488 23.36 22.904 22.916 23.28 22.492C23.656 22.06 23.976 21.628 24.24 21.196C24.504 20.764 24.708 20.328 24.852 19.888C24.996 19.44 25.068 18.964 25.068 18.46C25.068 17.956 24.988 17.516 24.828 17.14C24.668 16.756 24.448 16.44 24.168 16.192C23.896 15.944 23.572 15.76 23.196 15.64C22.82 15.512 22.416 15.448 21.984 15.448C21.544 15.448 21.14 15.512 20.772 15.64C20.404 15.768 20.076 15.948 19.788 16.18C19.508 16.404 19.272 16.672 19.08 16.984C18.888 17.296 18.752 17.64 18.672 18.016C18.576 18.296 18.444 18.484 18.276 18.58C18.116 18.668 17.888 18.692 17.592 18.652L16.476 18.46C16.588 17.676 16.804 16.984 17.124 16.384C17.452 15.776 17.86 15.268 18.348 14.86C18.844 14.452 19.408 14.144 20.04 13.936C20.672 13.72 21.356 13.612 22.092 13.612C22.82 13.612 23.5 13.72 24.132 13.936C24.764 14.152 25.312 14.468 25.776 14.884C26.24 15.292 26.604 15.792 26.868 16.384C27.132 16.976 27.264 17.648 27.264 18.4C27.264 19.04 27.168 19.636 26.976 20.188C26.784 20.732 26.524 21.252 26.196 21.748C25.868 22.244 25.488 22.728 25.056 23.2C24.632 23.672 24.18 24.148 23.7 24.628L19.164 29.26C19.484 29.172 19.808 29.104 20.136 29.056C20.464 29 20.78 28.972 21.084 28.972H26.844Z" fill="white"/>
</svg>
