<svg width="43" height="43" viewBox="0 0 43 43" fill="none" xmlns="http://www.w3.org/2000/svg">
<circle cx="21.5" cy="21.5" r="21.5" fill="#5BC1CF"/>
<path d="M16.56 18.46C16.672 17.676 16.888 16.984 17.208 16.384C17.528 15.776 17.932 15.268 18.42 14.86C18.916 14.452 19.48 14.144 20.112 13.936C20.752 13.72 21.44 13.612 22.176 13.612C22.904 13.612 23.576 13.716 24.192 13.924C24.808 14.132 25.336 14.428 25.776 14.812C26.224 15.196 26.572 15.66 26.82 16.204C27.068 16.748 27.192 17.352 27.192 18.016C27.192 18.56 27.12 19.048 26.976 19.48C26.84 19.904 26.64 20.276 26.376 20.596C26.12 20.916 25.808 21.188 25.44 21.412C25.072 21.636 24.66 21.82 24.204 21.964C25.324 22.252 26.164 22.748 26.724 23.452C27.292 24.148 27.576 25.02 27.576 26.068C27.576 26.86 27.424 27.572 27.12 28.204C26.824 28.836 26.416 29.376 25.896 29.824C25.376 30.264 24.768 30.604 24.072 30.844C23.384 31.076 22.644 31.192 21.852 31.192C20.94 31.192 20.16 31.08 19.512 30.856C18.864 30.624 18.316 30.308 17.868 29.908C17.42 29.508 17.052 29.036 16.764 28.492C16.476 27.94 16.232 27.344 16.032 26.704L16.956 26.32C17.196 26.216 17.428 26.188 17.652 26.236C17.884 26.284 18.052 26.416 18.156 26.632C18.26 26.856 18.388 27.124 18.54 27.436C18.7 27.748 18.916 28.048 19.188 28.336C19.46 28.624 19.804 28.868 20.22 29.068C20.644 29.268 21.18 29.368 21.828 29.368C22.428 29.368 22.952 29.272 23.4 29.08C23.856 28.88 24.232 28.624 24.528 28.312C24.832 28 25.06 27.652 25.212 27.268C25.364 26.884 25.44 26.504 25.44 26.128C25.44 25.664 25.38 25.24 25.26 24.856C25.14 24.472 24.916 24.14 24.588 23.86C24.26 23.58 23.808 23.36 23.232 23.2C22.664 23.04 21.932 22.96 21.036 22.96V21.412C21.772 21.404 22.396 21.324 22.908 21.172C23.428 21.02 23.848 20.812 24.168 20.548C24.496 20.284 24.732 19.968 24.876 19.6C25.028 19.232 25.104 18.824 25.104 18.376C25.104 17.88 25.024 17.448 24.864 17.08C24.712 16.712 24.5 16.408 24.228 16.168C23.956 15.928 23.632 15.748 23.256 15.628C22.888 15.508 22.488 15.448 22.056 15.448C21.624 15.448 21.22 15.512 20.844 15.64C20.476 15.768 20.148 15.948 19.86 16.18C19.58 16.404 19.344 16.672 19.152 16.984C18.96 17.296 18.824 17.64 18.744 18.016C18.64 18.296 18.508 18.484 18.348 18.58C18.196 18.668 17.972 18.692 17.676 18.652L16.56 18.46Z" fill="white"/>
</svg>
