<svg width="17" height="17" viewBox="0 0 17 17" fill="none" xmlns="http://www.w3.org/2000/svg">
<g clip-path="url(#clip0)">
<path d="M15.8092 6.11716V3.65162L13.3308 2.41153L10.921 0L8.5 0.605415L6.07898 0L3.6692 2.41153L1.19083 3.65162V6.11716L0 8.50056L1.19083 10.884V13.3495L3.6692 14.5896L6.07898 17.0011L8.5 16.3957L10.921 17.0011L13.3308 14.5896L15.8092 13.3495V10.884L17 8.50056L15.8092 6.11716ZM14.6847 10.6184V12.6541L12.7461 13.6241L10.5769 15.7543L8.5 15.2344L6.42307 15.7543L4.39899 13.7287L2.3142 12.6529V10.6184L1.25718 8.50056L2.31532 6.38274V4.34706L4.25394 3.37704L6.4242 1.24571L8.50112 1.76561L10.5781 1.24571L12.6021 3.27127L14.6869 4.34706V6.38274L15.7428 8.50056L14.6847 10.6184Z" fill="#4F4F4F"/>
<path d="M11.4752 4.72721L4.72852 11.4788L5.52364 12.2745L12.2703 5.52292L11.4752 4.72721Z" fill="#4F4F4F"/>
<path d="M6.25118 7.93793C7.18113 7.93793 7.93791 7.1806 7.93791 6.24997C7.93791 5.31934 7.18113 4.56201 6.25118 4.56201C5.32123 4.56201 4.56445 5.31934 4.56445 6.24997C4.56445 7.1806 5.32123 7.93793 6.25118 7.93793ZM6.25118 5.68732C6.56154 5.68732 6.81343 5.93939 6.81343 6.24997C6.81343 6.56056 6.56154 6.81262 6.25118 6.81262C5.94083 6.81262 5.68894 6.56056 5.68894 6.24997C5.68894 5.93939 5.94083 5.68732 6.25118 5.68732Z" fill="#4F4F4F"/>
<path d="M10.7492 9.06323C9.81928 9.06323 9.0625 9.82056 9.0625 10.7512C9.0625 11.6818 9.81928 12.4391 10.7492 12.4391C11.6792 12.4391 12.436 11.6818 12.436 10.7512C12.436 9.82056 11.6792 9.06323 10.7492 9.06323ZM10.7492 11.3138C10.4389 11.3138 10.187 11.0618 10.187 10.7512C10.187 10.4406 10.4389 10.1885 10.7492 10.1885C11.0596 10.1885 11.3115 10.4406 11.3115 10.7512C11.3115 11.0618 11.0596 11.3138 10.7492 11.3138Z" fill="#4F4F4F"/>
</g>
<defs>
<clipPath id="clip0">
<rect width="17" height="17" fill="white"/>
</clipPath>
</defs>
</svg>
